<?xml version="1.0" encoding="UTF-8" standalone="no"?>
<!-- This is a Stata 16.1 generated SVG file (http://www.stata.com) -->

<svg version="1.1" width="600px" height="436px" viewBox="0 0 3960 2880" xmlns="http://www.w3.org/2000/svg" xmlns:xlink="http://www.w3.org/1999/xlink">
	<desc>Stata Graph - f_all_s</desc>
	<rect x="0" y="0" width="3960" height="2880" style="fill:#FFFFFF;stroke:none"/>
	<rect x="0.00" y="0.00" width="3959.88" height="2880.00" style="fill:#FFFFFF"/>
	<rect x="2.88" y="2.88" width="3954.12" height="2874.24" style="fill:none;stroke:#FFFFFF;stroke-width:5.76"/>
	<path d=" M585.09 164.22 L585.09 164.22 L625.18 243.30 L665.28 322.38 L705.50 401.33 L745.59 480.41 L785.69 559.49 L825.91 638.45 L866.00 717.15 L906.10 795.37 L946.32 872.71 L986.41 948.94 L1026.51 1023.82 L1066.60 1097.08 L1106.82 1168.36 L1146.91 1237.54 L1187.01 1304.24 L1227.23 1368.22 L1267.32 1429.23 L1307.42 1487.03 L1347.64 1541.23 L1387.73 1591.72 L1427.83 1638.13 L1467.92 1680.70 L1508.14 1719.44 L1548.24 1754.71 L1588.33 1786.51 L1628.55 1814.97 L1668.64 1840.47 L1708.74 1862.99 L1748.96 1882.79 L1789.05 1899.87 L1829.15 1914.60 L1869.37 1927.10 L1909.46 1937.37 L1949.56 1945.78 L1989.65 1952.34 L2029.87 1957.29 L2069.97 1960.76 L2110.06 1962.98 L2150.28 1964.10 L2190.38 1964.10 L2230.47 1963.36 L2270.69 1961.99 L2310.78 1960.14 L2350.88 1957.91 L2390.97 1955.56 L2431.19 1953.21 L2471.29 1950.73 L2511.38 1948.38 L2551.60 1946.03 L2591.70 1943.55 L2631.79 1941.20 L2672.01 1938.85 L2712.11 1936.50 L2752.20 1934.03 L2792.30 1931.67 L2832.51 1929.32 L2872.61 1926.85 L2912.70 1924.50 L2952.92 1922.15 L2993.02 1919.67 L3033.11 1917.32 L3073.33 1914.97 L3113.43 1912.49 L3153.52 1910.14 L3193.62 1907.79 L3233.84 1905.31 L3273.93 1902.96 L3314.03 1900.61 L3354.24 1898.26 L3394.34 1895.79 L3434.43 1893.43 L3474.65 1891.08 L3514.75 1888.61 L3554.84 1886.26 L3594.94 1883.91 L3635.16 1881.43 L3675.25 1879.08 L3715.35 1876.73 L3755.57 1874.25 L3795.66 1871.90" stroke-linejoin="round" style="fill:none;stroke:#000000;stroke-width:8.64"/>
	<line x1="585.09" y1="164.22" x2="585.09" y2="164.22" style="stroke:#000000;stroke-width:8.64"/>
	<line x1="585.09" y1="164.22" x2="600.06" y2="201.72" style="stroke:#000000;stroke-width:8.64"/>
	<line x1="606.38" y1="217.68" x2="621.35" y2="255.18" style="stroke:#000000;stroke-width:8.64"/>
	<line x1="627.78" y1="271.14" x2="642.63" y2="308.64" style="stroke:#000000;stroke-width:8.64"/>
	<line x1="649.07" y1="324.73" x2="664.04" y2="362.10" style="stroke:#000000;stroke-width:8.64"/>
	<line x1="670.35" y1="378.19" x2="685.33" y2="415.69" style="stroke:#000000;stroke-width:8.64"/>
	<line x1="691.76" y1="431.65" x2="705.50" y2="465.81" style="stroke:#000000;stroke-width:8.64"/>
	<line x1="705.50" y1="465.81" x2="706.74" y2="469.03" style="stroke:#000000;stroke-width:8.64"/>
	<line x1="713.17" y1="485.12" x2="728.14" y2="522.61" style="stroke:#000000;stroke-width:8.64"/>
	<line x1="734.46" y1="538.58" x2="745.59" y2="566.42" style="stroke:#000000;stroke-width:8.64"/>
	<line x1="745.59" y1="566.42" x2="749.43" y2="576.07" style="stroke:#000000;stroke-width:8.64"/>
	<line x1="755.87" y1="592.04" x2="770.72" y2="629.54" style="stroke:#000000;stroke-width:8.64"/>
	<line x1="777.15" y1="645.62" x2="785.69" y2="666.91" style="stroke:#000000;stroke-width:8.64"/>
	<line x1="785.69" y1="666.91" x2="792.12" y2="683.00" style="stroke:#000000;stroke-width:8.64"/>
	<line x1="798.56" y1="699.09" x2="813.53" y2="736.46" style="stroke:#000000;stroke-width:8.64"/>
	<line x1="819.97" y1="752.55" x2="825.91" y2="767.40" style="stroke:#000000;stroke-width:8.64"/>
	<line x1="825.91" y1="767.40" x2="834.94" y2="789.92" style="stroke:#000000;stroke-width:8.64"/>
	<line x1="841.38" y1="805.89" x2="856.35" y2="843.38" style="stroke:#000000;stroke-width:8.64"/>
	<line x1="862.78" y1="859.35" x2="866.00" y2="867.51" style="stroke:#000000;stroke-width:8.64"/>
	<line x1="866.00" y1="867.51" x2="877.88" y2="896.72" style="stroke:#000000;stroke-width:8.64"/>
	<line x1="884.32" y1="912.68" x2="899.29" y2="950.18" style="stroke:#000000;stroke-width:8.64"/>
	<line x1="905.85" y1="966.15" x2="906.10" y2="966.89" style="stroke:#000000;stroke-width:8.64"/>
	<line x1="906.10" y1="966.89" x2="921.07" y2="1003.40" style="stroke:#000000;stroke-width:8.64"/>
	<line x1="927.51" y1="1019.36" x2="942.85" y2="1056.73" style="stroke:#000000;stroke-width:8.64"/>
	<line x1="949.41" y1="1072.70" x2="964.88" y2="1109.95" style="stroke:#000000;stroke-width:8.64"/>
	<line x1="971.44" y1="1125.91" x2="986.41" y2="1162.05" style="stroke:#000000;stroke-width:8.64"/>
	<line x1="986.41" y1="1162.05" x2="986.91" y2="1163.16" style="stroke:#000000;stroke-width:8.64"/>
	<line x1="993.59" y1="1179.00" x2="1009.30" y2="1216.25" style="stroke:#000000;stroke-width:8.64"/>
	<line x1="1015.99" y1="1232.09" x2="1026.51" y2="1257.22" style="stroke:#000000;stroke-width:8.64"/>
	<line x1="1026.51" y1="1257.22" x2="1031.70" y2="1269.22" style="stroke:#000000;stroke-width:8.64"/>
	<line x1="1038.51" y1="1285.06" x2="1054.47" y2="1322.06" style="stroke:#000000;stroke-width:8.64"/>
	<line x1="1061.28" y1="1337.90" x2="1066.60" y2="1350.15" style="stroke:#000000;stroke-width:8.64"/>
	<line x1="1066.60" y1="1350.15" x2="1077.49" y2="1374.91" style="stroke:#000000;stroke-width:8.64"/>
	<line x1="1084.55" y1="1390.62" x2="1101.00" y2="1427.50" style="stroke:#000000;stroke-width:8.64"/>
	<line x1="1108.06" y1="1443.22" x2="1124.76" y2="1479.97" style="stroke:#000000;stroke-width:8.64"/>
	<line x1="1132.07" y1="1495.57" x2="1146.91" y2="1528.24" style="stroke:#000000;stroke-width:8.64"/>
	<line x1="1146.91" y1="1528.24" x2="1148.77" y2="1532.32" style="stroke:#000000;stroke-width:8.64"/>
	<line x1="1156.32" y1="1547.91" x2="1173.52" y2="1584.30" style="stroke:#000000;stroke-width:8.64"/>
	<line x1="1180.95" y1="1599.89" x2="1187.01" y2="1612.64" style="stroke:#000000;stroke-width:8.64"/>
	<line x1="1187.01" y1="1612.64" x2="1198.64" y2="1636.15" style="stroke:#000000;stroke-width:8.64"/>
	<line x1="1206.32" y1="1651.50" x2="1224.26" y2="1687.63" style="stroke:#000000;stroke-width:8.64"/>
	<line x1="1232.06" y1="1702.98" x2="1250.74" y2="1738.74" style="stroke:#000000;stroke-width:8.64"/>
	<line x1="1258.66" y1="1754.09" x2="1267.32" y2="1770.67" style="stroke:#000000;stroke-width:8.64"/>
	<line x1="1267.32" y1="1770.67" x2="1277.72" y2="1789.60" style="stroke:#000000;stroke-width:8.64"/>
	<line x1="1286.13" y1="1804.70" x2="1305.56" y2="1839.97" style="stroke:#000000;stroke-width:8.64"/>
	<line x1="1314.22" y1="1854.95" x2="1334.64" y2="1889.72" style="stroke:#000000;stroke-width:8.64"/>
	<line x1="1343.43" y1="1904.57" x2="1347.64" y2="1911.63" style="stroke:#000000;stroke-width:8.64"/>
	<line x1="1347.64" y1="1911.63" x2="1364.84" y2="1938.73" style="stroke:#000000;stroke-width:8.64"/>
	<line x1="1374.12" y1="1953.33" x2="1387.73" y2="1974.86" style="stroke:#000000;stroke-width:8.64"/>
	<line x1="1387.73" y1="1974.86" x2="1396.15" y2="1987.12" style="stroke:#000000;stroke-width:8.64"/>
	<line x1="1405.92" y1="2001.22" x2="1427.83" y2="2032.90" style="stroke:#000000;stroke-width:8.64"/>
	<line x1="1427.83" y1="2032.90" x2="1429.07" y2="2034.39" style="stroke:#000000;stroke-width:8.64"/>
	<line x1="1439.46" y1="2048.25" x2="1463.71" y2="2080.30" style="stroke:#000000;stroke-width:8.64"/>
	<line x1="1474.48" y1="2093.79" x2="1500.35" y2="2124.73" style="stroke:#000000;stroke-width:8.64"/>
	<line x1="1511.61" y1="2137.85" x2="1538.83" y2="2167.55" style="stroke:#000000;stroke-width:8.64"/>
	<line x1="1550.71" y1="2180.05" x2="1579.55" y2="2208.26" style="stroke:#000000;stroke-width:8.64"/>
	<line x1="1592.04" y1="2220.14" x2="1622.61" y2="2246.63" style="stroke:#000000;stroke-width:8.64"/>
	<line x1="1635.85" y1="2257.52" x2="1667.78" y2="2282.15" style="stroke:#000000;stroke-width:8.64"/>
	<line x1="1682.13" y1="2291.92" x2="1708.74" y2="2310.11" style="stroke:#000000;stroke-width:8.64"/>
	<line x1="1708.74" y1="2310.11" x2="1715.67" y2="2314.20" style="stroke:#000000;stroke-width:8.64"/>
	<line x1="1730.52" y1="2322.98" x2="1748.96" y2="2333.87" style="stroke:#000000;stroke-width:8.64"/>
	<line x1="1748.96" y1="2333.87" x2="1765.91" y2="2342.41" style="stroke:#000000;stroke-width:8.64"/>
	<line x1="1781.26" y1="2350.21" x2="1789.05" y2="2354.29" style="stroke:#000000;stroke-width:8.64"/>
	<line x1="1789.05" y1="2354.29" x2="1817.89" y2="2366.79" style="stroke:#000000;stroke-width:8.64"/>
	<line x1="1833.85" y1="2373.35" x2="1869.37" y2="2386.10" style="stroke:#000000;stroke-width:8.64"/>
	<line x1="1869.37" y1="2386.10" x2="1871.97" y2="2386.84" style="stroke:#000000;stroke-width:8.64"/>
	<line x1="1888.55" y1="2391.79" x2="1909.46" y2="2397.98" style="stroke:#000000;stroke-width:8.64"/>
	<line x1="1909.46" y1="2397.98" x2="1927.41" y2="2402.19" style="stroke:#000000;stroke-width:8.64"/>
	<line x1="1944.24" y1="2406.15" x2="1949.56" y2="2407.38" style="stroke:#000000;stroke-width:8.64"/>
	<line x1="1949.56" y1="2407.38" x2="1983.84" y2="2413.45" style="stroke:#000000;stroke-width:8.64"/>
	<line x1="2000.79" y1="2416.05" x2="2029.87" y2="2419.88" style="stroke:#000000;stroke-width:8.64"/>
	<line x1="2029.87" y1="2419.88" x2="2040.88" y2="2420.87" style="stroke:#000000;stroke-width:8.64"/>
	<line x1="2058.09" y1="2422.36" x2="2069.97" y2="2423.35" style="stroke:#000000;stroke-width:8.64"/>
	<line x1="2069.97" y1="2423.35" x2="2098.30" y2="2424.71" style="stroke:#000000;stroke-width:8.64"/>
	<line x1="2115.51" y1="2425.33" x2="2150.28" y2="2425.95" style="stroke:#000000;stroke-width:8.64"/>
	<line x1="2150.28" y1="2425.95" x2="2155.85" y2="2425.82" style="stroke:#000000;stroke-width:8.64"/>
	<line x1="2173.05" y1="2425.70" x2="2190.38" y2="2425.45" style="stroke:#000000;stroke-width:8.64"/>
	<line x1="2190.38" y1="2425.45" x2="2213.39" y2="2424.59" style="stroke:#000000;stroke-width:8.64"/>
	<line x1="2230.59" y1="2423.97" x2="2270.69" y2="2421.99" style="stroke:#000000;stroke-width:8.64"/>
	<line x1="2270.69" y1="2421.99" x2="2270.94" y2="2421.99" style="stroke:#000000;stroke-width:8.64"/>
	<line x1="2288.14" y1="2420.87" x2="2310.78" y2="2419.39" style="stroke:#000000;stroke-width:8.64"/>
	<line x1="2310.78" y1="2419.39" x2="2328.36" y2="2418.15" style="stroke:#000000;stroke-width:8.64"/>
	<line x1="2345.56" y1="2416.91" x2="2350.88" y2="2416.54" style="stroke:#000000;stroke-width:8.64"/>
	<line x1="2350.88" y1="2416.54" x2="2385.78" y2="2414.07" style="stroke:#000000;stroke-width:8.64"/>
	<line x1="2402.98" y1="2412.83" x2="2431.19" y2="2410.97" style="stroke:#000000;stroke-width:8.64"/>
	<line x1="2431.19" y1="2410.97" x2="2443.32" y2="2410.23" style="stroke:#000000;stroke-width:8.64"/>
	<line x1="2460.40" y1="2409.12" x2="2471.29" y2="2408.37" style="stroke:#000000;stroke-width:8.64"/>
	<line x1="2471.29" y1="2408.37" x2="2500.74" y2="2406.52" style="stroke:#000000;stroke-width:8.64"/>
	<line x1="2517.94" y1="2405.53" x2="2551.60" y2="2403.67" style="stroke:#000000;stroke-width:8.64"/>
	<line x1="2551.60" y1="2403.67" x2="2558.16" y2="2403.30" style="stroke:#000000;stroke-width:8.64"/>
	<line x1="2575.36" y1="2402.43" x2="2591.70" y2="2401.57" style="stroke:#000000;stroke-width:8.64"/>
	<line x1="2591.70" y1="2401.57" x2="2615.70" y2="2400.45" style="stroke:#000000;stroke-width:8.64"/>
	<line x1="2632.91" y1="2399.59" x2="2672.01" y2="2397.73" style="stroke:#000000;stroke-width:8.64"/>
	<line x1="2672.01" y1="2397.73" x2="2673.12" y2="2397.61" style="stroke:#000000;stroke-width:8.64"/>
	<line x1="2690.45" y1="2396.86" x2="2712.11" y2="2396.00" style="stroke:#000000;stroke-width:8.64"/>
	<line x1="2712.11" y1="2396.00" x2="2730.79" y2="2395.26" style="stroke:#000000;stroke-width:8.64"/>
	<line x1="2747.99" y1="2394.64" x2="2752.20" y2="2394.51" style="stroke:#000000;stroke-width:8.64"/>
	<line x1="2752.20" y1="2394.51" x2="2788.34" y2="2393.28" style="stroke:#000000;stroke-width:8.64"/>
	<line x1="2805.54" y1="2392.78" x2="2832.51" y2="2391.91" style="stroke:#000000;stroke-width:8.64"/>
	<line x1="2832.51" y1="2391.91" x2="2845.88" y2="2391.54" style="stroke:#000000;stroke-width:8.64"/>
	<line x1="2863.08" y1="2391.05" x2="2872.61" y2="2390.80" style="stroke:#000000;stroke-width:8.64"/>
	<line x1="2872.61" y1="2390.80" x2="2903.42" y2="2390.06" style="stroke:#000000;stroke-width:8.64"/>
	<line x1="2920.75" y1="2389.69" x2="2952.92" y2="2389.07" style="stroke:#000000;stroke-width:8.64"/>
	<line x1="2952.92" y1="2389.07" x2="2961.09" y2="2388.94" style="stroke:#000000;stroke-width:8.64"/>
	<line x1="2978.29" y1="2388.70" x2="2993.02" y2="2388.33" style="stroke:#000000;stroke-width:8.64"/>
	<line x1="2993.02" y1="2388.33" x2="3018.63" y2="2388.08" style="stroke:#000000;stroke-width:8.64"/>
	<line x1="3035.84" y1="2387.83" x2="3073.33" y2="2387.46" style="stroke:#000000;stroke-width:8.64"/>
	<line x1="3073.33" y1="2387.46" x2="3076.18" y2="2387.46" style="stroke:#000000;stroke-width:8.64"/>
	<line x1="3093.38" y1="2387.34" x2="3113.43" y2="2387.21" style="stroke:#000000;stroke-width:8.64"/>
	<line x1="3113.43" y1="2387.21" x2="3133.72" y2="2387.21" style="stroke:#000000;stroke-width:8.64"/>
	<line x1="3151.05" y1="2387.21" x2="3153.52" y2="2387.21" style="stroke:#000000;stroke-width:8.64"/>
	<line x1="3153.52" y1="2387.21" x2="3191.39" y2="2387.21" style="stroke:#000000;stroke-width:8.64"/>
	<line x1="3208.59" y1="2387.34" x2="3233.84" y2="2387.34" style="stroke:#000000;stroke-width:8.64"/>
	<line x1="3233.84" y1="2387.34" x2="3248.93" y2="2387.46" style="stroke:#000000;stroke-width:8.64"/>
	<line x1="3266.13" y1="2387.71" x2="3273.93" y2="2387.71" style="stroke:#000000;stroke-width:8.64"/>
	<line x1="3273.93" y1="2387.71" x2="3306.48" y2="2388.08" style="stroke:#000000;stroke-width:8.64"/>
	<line x1="3323.68" y1="2388.20" x2="3354.24" y2="2388.57" style="stroke:#000000;stroke-width:8.64"/>
	<line x1="3354.24" y1="2388.57" x2="3364.02" y2="2388.82" style="stroke:#000000;stroke-width:8.64"/>
	<line x1="3381.34" y1="2389.07" x2="3394.34" y2="2389.32" style="stroke:#000000;stroke-width:8.64"/>
	<line x1="3394.34" y1="2389.32" x2="3421.56" y2="2389.81" style="stroke:#000000;stroke-width:8.64"/>
	<line x1="3438.89" y1="2390.18" x2="3474.65" y2="2391.05" style="stroke:#000000;stroke-width:8.64"/>
	<line x1="3474.65" y1="2391.05" x2="3479.23" y2="2391.17" style="stroke:#000000;stroke-width:8.64"/>
	<line x1="3496.43" y1="2391.67" x2="3514.75" y2="2392.04" style="stroke:#000000;stroke-width:8.64"/>
	<line x1="3514.75" y1="2392.04" x2="3536.78" y2="2392.66" style="stroke:#000000;stroke-width:8.64"/>
	<line x1="3553.98" y1="2393.15" x2="3554.84" y2="2393.15" style="stroke:#000000;stroke-width:8.64"/>
	<line x1="3554.84" y1="2393.15" x2="3594.32" y2="2394.39" style="stroke:#000000;stroke-width:8.64"/>
	<line x1="3611.52" y1="2395.01" x2="3635.16" y2="2395.75" style="stroke:#000000;stroke-width:8.64"/>
	<line x1="3635.16" y1="2395.75" x2="3651.86" y2="2396.37" style="stroke:#000000;stroke-width:8.64"/>
	<line x1="3669.19" y1="2396.99" x2="3675.25" y2="2397.24" style="stroke:#000000;stroke-width:8.64"/>
	<line x1="3675.25" y1="2397.24" x2="3709.41" y2="2398.60" style="stroke:#000000;stroke-width:8.64"/>
	<line x1="3726.61" y1="2399.34" x2="3755.57" y2="2400.45" style="stroke:#000000;stroke-width:8.64"/>
	<line x1="3755.57" y1="2400.45" x2="3766.95" y2="2400.95" style="stroke:#000000;stroke-width:8.64"/>
	<line x1="3784.28" y1="2401.82" x2="3795.66" y2="2402.31" style="stroke:#000000;stroke-width:8.64"/>
	<path d="" stroke-linejoin="round" style="fill:none;stroke:#000000;stroke-width:8.64"/>
	<line x1="585.09" y1="164.22" x2="585.09" y2="164.22" style="stroke:#000000;stroke-width:8.64"/>
	<line x1="585.09" y1="164.22" x2="608.11" y2="197.26" style="stroke:#000000;stroke-width:8.64"/>
	<line x1="618.01" y1="211.37" x2="625.18" y2="221.77" style="stroke:#000000;stroke-width:8.64"/>
	<line x1="625.18" y1="221.77" x2="641.02" y2="244.54" style="stroke:#000000;stroke-width:8.64"/>
	<line x1="650.92" y1="258.65" x2="665.28" y2="279.31" style="stroke:#000000;stroke-width:8.64"/>
	<line x1="665.28" y1="279.31" x2="673.94" y2="291.69" style="stroke:#000000;stroke-width:8.64"/>
	<line x1="683.84" y1="305.92" x2="705.50" y2="336.86" style="stroke:#000000;stroke-width:8.64"/>
	<line x1="705.50" y1="336.86" x2="706.86" y2="338.96" style="stroke:#000000;stroke-width:8.64"/>
	<line x1="716.76" y1="353.07" x2="739.90" y2="386.11" style="stroke:#000000;stroke-width:8.64"/>
	<line x1="749.68" y1="400.34" x2="772.70" y2="433.39" style="stroke:#000000;stroke-width:8.64"/>
	<line x1="782.60" y1="447.49" x2="785.69" y2="451.95" style="stroke:#000000;stroke-width:8.64"/>
	<line x1="785.69" y1="451.95" x2="805.74" y2="480.54" style="stroke:#000000;stroke-width:8.64"/>
	<line x1="815.64" y1="494.77" x2="825.91" y2="509.49" style="stroke:#000000;stroke-width:8.64"/>
	<line x1="825.91" y1="509.49" x2="838.78" y2="527.69" style="stroke:#000000;stroke-width:8.64"/>
	<line x1="848.55" y1="541.92" x2="866.00" y2="566.79" style="stroke:#000000;stroke-width:8.64"/>
	<line x1="866.00" y1="566.79" x2="871.70" y2="574.96" style="stroke:#000000;stroke-width:8.64"/>
	<line x1="881.72" y1="589.07" x2="904.86" y2="622.11" style="stroke:#000000;stroke-width:8.64"/>
	<line x1="914.88" y1="636.09" x2="938.40" y2="668.89" style="stroke:#000000;stroke-width:8.64"/>
	<line x1="948.30" y1="682.87" x2="971.93" y2="715.67" style="stroke:#000000;stroke-width:8.64"/>
	<line x1="981.96" y1="729.65" x2="986.41" y2="735.72" style="stroke:#000000;stroke-width:8.64"/>
	<line x1="986.41" y1="735.72" x2="1005.84" y2="762.08" style="stroke:#000000;stroke-width:8.64"/>
	<line x1="1015.99" y1="776.06" x2="1026.51" y2="790.42" style="stroke:#000000;stroke-width:8.64"/>
	<line x1="1026.51" y1="790.42" x2="1039.99" y2="808.36" style="stroke:#000000;stroke-width:8.64"/>
	<line x1="1050.27" y1="822.10" x2="1066.60" y2="843.88" style="stroke:#000000;stroke-width:8.64"/>
	<line x1="1066.60" y1="843.88" x2="1074.64" y2="854.27" style="stroke:#000000;stroke-width:8.64"/>
	<line x1="1085.16" y1="868.01" x2="1106.82" y2="896.10" style="stroke:#000000;stroke-width:8.64"/>
	<line x1="1106.82" y1="896.10" x2="1109.79" y2="899.94" style="stroke:#000000;stroke-width:8.64"/>
	<line x1="1120.56" y1="913.43" x2="1145.43" y2="944.98" style="stroke:#000000;stroke-width:8.64"/>
	<line x1="1156.32" y1="958.47" x2="1181.94" y2="989.66" style="stroke:#000000;stroke-width:8.64"/>
	<line x1="1192.95" y1="1002.90" x2="1219.18" y2="1033.47" style="stroke:#000000;stroke-width:8.64"/>
	<line x1="1230.45" y1="1046.46" x2="1257.30" y2="1076.66" style="stroke:#000000;stroke-width:8.64"/>
	<line x1="1268.81" y1="1089.53" x2="1296.40" y2="1118.86" style="stroke:#000000;stroke-width:8.64"/>
	<line x1="1308.29" y1="1131.48" x2="1336.75" y2="1159.94" style="stroke:#000000;stroke-width:8.64"/>
	<line x1="1349.00" y1="1172.07" x2="1378.33" y2="1199.67" style="stroke:#000000;stroke-width:8.64"/>
	<line x1="1391.07" y1="1211.43" x2="1421.52" y2="1237.79" style="stroke:#000000;stroke-width:8.64"/>
	<line x1="1434.76" y1="1248.80" x2="1466.31" y2="1273.92" style="stroke:#000000;stroke-width:8.64"/>
	<line x1="1480.17" y1="1284.19" x2="1508.14" y2="1304.74" style="stroke:#000000;stroke-width:8.64"/>
	<line x1="1508.14" y1="1304.74" x2="1512.72" y2="1307.83" style="stroke:#000000;stroke-width:8.64"/>
	<line x1="1527.08" y1="1317.36" x2="1548.24" y2="1331.59" style="stroke:#000000;stroke-width:8.64"/>
	<line x1="1548.24" y1="1331.59" x2="1560.86" y2="1339.39" style="stroke:#000000;stroke-width:8.64"/>
	<line x1="1575.71" y1="1348.30" x2="1588.33" y2="1356.09" style="stroke:#000000;stroke-width:8.64"/>
	<line x1="1588.33" y1="1356.09" x2="1610.61" y2="1368.35" style="stroke:#000000;stroke-width:8.64"/>
	<line x1="1625.70" y1="1376.64" x2="1628.55" y2="1378.25" style="stroke:#000000;stroke-width:8.64"/>
	<line x1="1628.55" y1="1378.25" x2="1661.84" y2="1394.71" style="stroke:#000000;stroke-width:8.64"/>
	<line x1="1677.43" y1="1402.01" x2="1708.74" y2="1415.87" style="stroke:#000000;stroke-width:8.64"/>
	<line x1="1708.74" y1="1415.87" x2="1714.43" y2="1418.10" style="stroke:#000000;stroke-width:8.64"/>
	<line x1="1730.40" y1="1424.41" x2="1748.96" y2="1431.71" style="stroke:#000000;stroke-width:8.64"/>
	<line x1="1748.96" y1="1431.71" x2="1768.26" y2="1438.39" style="stroke:#000000;stroke-width:8.64"/>
	<line x1="1784.47" y1="1443.96" x2="1789.05" y2="1445.57" style="stroke:#000000;stroke-width:8.64"/>
	<line x1="1789.05" y1="1445.57" x2="1823.09" y2="1455.84" style="stroke:#000000;stroke-width:8.64"/>
	<line x1="1839.67" y1="1460.42" x2="1869.37" y2="1467.97" style="stroke:#000000;stroke-width:8.64"/>
	<line x1="1869.37" y1="1467.97" x2="1878.77" y2="1470.07" style="stroke:#000000;stroke-width:8.64"/>
	<line x1="1895.60" y1="1473.91" x2="1909.46" y2="1476.88" style="stroke:#000000;stroke-width:8.64"/>
	<line x1="1909.46" y1="1476.88" x2="1935.20" y2="1481.58" style="stroke:#000000;stroke-width:8.64"/>
	<line x1="1952.28" y1="1484.55" x2="1989.65" y2="1490.12" style="stroke:#000000;stroke-width:8.64"/>
	<line x1="1989.65" y1="1490.12" x2="1992.13" y2="1490.37" style="stroke:#000000;stroke-width:8.64"/>
	<line x1="2009.20" y1="1492.35" x2="2029.87" y2="1494.70" style="stroke:#000000;stroke-width:8.64"/>
	<line x1="2029.87" y1="1494.70" x2="2049.42" y2="1496.43" style="stroke:#000000;stroke-width:8.64"/>
	<line x1="2066.62" y1="1497.92" x2="2069.97" y2="1498.29" style="stroke:#000000;stroke-width:8.64"/>
	<line x1="2069.97" y1="1498.29" x2="2106.84" y2="1500.52" style="stroke:#000000;stroke-width:8.64"/>
	<line x1="2124.05" y1="1501.13" x2="2150.28" y2="1502.12" style="stroke:#000000;stroke-width:8.64"/>
	<line x1="2150.28" y1="1502.12" x2="2164.39" y2="1502.37" style="stroke:#000000;stroke-width:8.64"/>
	<line x1="2181.71" y1="1502.62" x2="2190.38" y2="1502.87" style="stroke:#000000;stroke-width:8.64"/>
	<line x1="2190.38" y1="1502.87" x2="2221.93" y2="1502.74" style="stroke:#000000;stroke-width:8.64"/>
	<line x1="2239.26" y1="1502.50" x2="2270.69" y2="1502.00" style="stroke:#000000;stroke-width:8.64"/>
	<line x1="2270.69" y1="1502.00" x2="2279.60" y2="1501.75" style="stroke:#000000;stroke-width:8.64"/>
	<line x1="2296.80" y1="1501.26" x2="2310.78" y2="1500.89" style="stroke:#000000;stroke-width:8.64"/>
	<line x1="2310.78" y1="1500.89" x2="2337.02" y2="1499.77" style="stroke:#000000;stroke-width:8.64"/>
	<line x1="2354.34" y1="1499.03" x2="2390.97" y2="1497.42" style="stroke:#000000;stroke-width:8.64"/>
	<line x1="2390.97" y1="1497.42" x2="2394.56" y2="1497.30" style="stroke:#000000;stroke-width:8.64"/>
	<line x1="2411.76" y1="1496.31" x2="2431.19" y2="1495.32" style="stroke:#000000;stroke-width:8.64"/>
	<line x1="2431.19" y1="1495.32" x2="2452.11" y2="1494.20" style="stroke:#000000;stroke-width:8.64"/>
	<line x1="2469.31" y1="1493.34" x2="2471.29" y2="1493.21" style="stroke:#000000;stroke-width:8.64"/>
	<line x1="2471.29" y1="1493.21" x2="2509.65" y2="1490.99" style="stroke:#000000;stroke-width:8.64"/>
	<line x1="2526.85" y1="1490.00" x2="2551.60" y2="1488.39" style="stroke:#000000;stroke-width:8.64"/>
	<line x1="2551.60" y1="1488.39" x2="2567.07" y2="1487.40" style="stroke:#000000;stroke-width:8.64"/>
	<line x1="2584.27" y1="1486.16" x2="2591.70" y2="1485.67" style="stroke:#000000;stroke-width:8.64"/>
	<line x1="2591.70" y1="1485.67" x2="2624.49" y2="1483.44" style="stroke:#000000;stroke-width:8.64"/>
	<line x1="2641.69" y1="1482.20" x2="2672.01" y2="1479.97" style="stroke:#000000;stroke-width:8.64"/>
	<line x1="2672.01" y1="1479.97" x2="2681.91" y2="1479.23" style="stroke:#000000;stroke-width:8.64"/>
	<line x1="2699.11" y1="1477.87" x2="2712.11" y2="1476.88" style="stroke:#000000;stroke-width:8.64"/>
	<line x1="2712.11" y1="1476.88" x2="2739.33" y2="1474.65" style="stroke:#000000;stroke-width:8.64"/>
	<line x1="2756.53" y1="1473.29" x2="2792.30" y2="1470.20" style="stroke:#000000;stroke-width:8.64"/>
	<line x1="2792.30" y1="1470.20" x2="2796.75" y2="1469.82" style="stroke:#000000;stroke-width:8.64"/>
	<line x1="2813.95" y1="1468.34" x2="2832.51" y2="1466.61" style="stroke:#000000;stroke-width:8.64"/>
	<line x1="2832.51" y1="1466.61" x2="2854.05" y2="1464.63" style="stroke:#000000;stroke-width:8.64"/>
	<line x1="2871.25" y1="1463.14" x2="2872.61" y2="1463.02" style="stroke:#000000;stroke-width:8.64"/>
	<line x1="2872.61" y1="1463.02" x2="2911.34" y2="1459.31" style="stroke:#000000;stroke-width:8.64"/>
	<line x1="2928.54" y1="1457.57" x2="2952.92" y2="1455.10" style="stroke:#000000;stroke-width:8.64"/>
	<line x1="2952.92" y1="1455.10" x2="2968.76" y2="1453.49" style="stroke:#000000;stroke-width:8.64"/>
	<line x1="2985.84" y1="1451.76" x2="2993.02" y2="1451.01" style="stroke:#000000;stroke-width:8.64"/>
	<line x1="2993.02" y1="1451.01" x2="3025.93" y2="1447.55" style="stroke:#000000;stroke-width:8.64"/>
	<line x1="3043.14" y1="1445.69" x2="3073.33" y2="1442.35" style="stroke:#000000;stroke-width:8.64"/>
	<line x1="3073.33" y1="1442.35" x2="3083.23" y2="1441.24" style="stroke:#000000;stroke-width:8.64"/>
	<line x1="3100.31" y1="1439.26" x2="3113.43" y2="1437.77" style="stroke:#000000;stroke-width:8.64"/>
	<line x1="3113.43" y1="1437.77" x2="3140.40" y2="1434.68" style="stroke:#000000;stroke-width:8.64"/>
	<line x1="3157.48" y1="1432.70" x2="3193.62" y2="1428.37" style="stroke:#000000;stroke-width:8.64"/>
	<line x1="3193.62" y1="1428.37" x2="3197.58" y2="1427.87" style="stroke:#000000;stroke-width:8.64"/>
	<line x1="3214.78" y1="1425.77" x2="3233.84" y2="1423.42" style="stroke:#000000;stroke-width:8.64"/>
	<line x1="3233.84" y1="1423.42" x2="3254.75" y2="1420.82" style="stroke:#000000;stroke-width:8.64"/>
	<line x1="3271.83" y1="1418.59" x2="3273.93" y2="1418.34" style="stroke:#000000;stroke-width:8.64"/>
	<line x1="3273.93" y1="1418.34" x2="3311.80" y2="1413.52" style="stroke:#000000;stroke-width:8.64"/>
	<line x1="3329.00" y1="1411.17" x2="3354.24" y2="1407.82" style="stroke:#000000;stroke-width:8.64"/>
	<line x1="3354.24" y1="1407.82" x2="3368.97" y2="1405.84" style="stroke:#000000;stroke-width:8.64"/>
	<line x1="3385.92" y1="1403.49" x2="3394.34" y2="1402.38" style="stroke:#000000;stroke-width:8.64"/>
	<line x1="3394.34" y1="1402.38" x2="3425.89" y2="1397.92" style="stroke:#000000;stroke-width:8.64"/>
	<line x1="3442.97" y1="1395.57" x2="3474.65" y2="1391.12" style="stroke:#000000;stroke-width:8.64"/>
	<line x1="3474.65" y1="1391.12" x2="3482.94" y2="1389.88" style="stroke:#000000;stroke-width:8.64"/>
	<line x1="3500.02" y1="1387.40" x2="3514.75" y2="1385.30" style="stroke:#000000;stroke-width:8.64"/>
	<line x1="3514.75" y1="1385.30" x2="3539.99" y2="1381.59" style="stroke:#000000;stroke-width:8.64"/>
	<line x1="3556.95" y1="1379.11" x2="3594.94" y2="1373.30" style="stroke:#000000;stroke-width:8.64"/>
	<line x1="3594.94" y1="1373.30" x2="3596.92" y2="1373.05" style="stroke:#000000;stroke-width:8.64"/>
	<line x1="3613.99" y1="1370.45" x2="3635.16" y2="1367.11" style="stroke:#000000;stroke-width:8.64"/>
	<line x1="3635.16" y1="1367.11" x2="3653.84" y2="1364.26" style="stroke:#000000;stroke-width:8.64"/>
	<line x1="3670.92" y1="1361.54" x2="3675.25" y2="1360.92" style="stroke:#000000;stroke-width:8.64"/>
	<line x1="3675.25" y1="1360.92" x2="3710.64" y2="1355.35" style="stroke:#000000;stroke-width:8.64"/>
	<line x1="3727.72" y1="1352.63" x2="3755.57" y2="1348.05" style="stroke:#000000;stroke-width:8.64"/>
	<line x1="3755.57" y1="1348.05" x2="3767.45" y2="1346.07" style="stroke:#000000;stroke-width:8.64"/>
	<line x1="3784.52" y1="1343.35" x2="3795.66" y2="1341.49" style="stroke:#000000;stroke-width:8.64"/>
	<path d="" stroke-linejoin="round" style="fill:none;stroke:#000000;stroke-width:8.64"/>
	<line x1="521.73" y1="2489.19" x2="521.73" y2="100.86" style="stroke:#000000;stroke-width:5.76"/>
	<line x1="521.73" y1="2269.65" x2="481.76" y2="2269.65" style="stroke:#000000;stroke-width:5.76"/>
	<text x="461.83" y="2304.67" style="font-family:'Helvetica';font-size:99.99px;fill:#000000" text-anchor="end">0.80</text>
	<line x1="521.73" y1="1697.53" x2="481.76" y2="1697.53" style="stroke:#000000;stroke-width:5.76"/>
	<text x="461.83" y="1732.56" style="font-family:'Helvetica';font-size:99.99px;fill:#000000" text-anchor="end">0.85</text>
	<line x1="521.73" y1="1158.21" x2="481.76" y2="1158.21" style="stroke:#000000;stroke-width:5.76"/>
	<text x="461.83" y="1193.24" style="font-family:'Helvetica';font-size:99.99px;fill:#000000" text-anchor="end">0.90</text>
	<line x1="521.73" y1="648.10" x2="481.76" y2="648.10" style="stroke:#000000;stroke-width:5.76"/>
	<text x="461.83" y="683.13" style="font-family:'Helvetica';font-size:99.99px;fill:#000000" text-anchor="end">0.95</text>
	<line x1="521.73" y1="164.22" x2="481.76" y2="164.22" style="stroke:#000000;stroke-width:5.76"/>
	<text x="461.83" y="199.25" style="font-family:'Helvetica';font-size:99.99px;fill:#000000" text-anchor="end">1.00</text>
	<text x="190.71" y="1294.96" style="font-family:'Helvetica';font-size:99.99px;fill:#000000" transform="rotate(-90 190.71,1294.96)" text-anchor="middle">Relative Risk</text>
	<line x1="521.73" y1="2489.19" x2="3859.02" y2="2489.19" style="stroke:#000000;stroke-width:5.76"/>
	<line x1="585.09" y1="2489.19" x2="585.09" y2="2529.16" style="stroke:#000000;stroke-width:5.76"/>
	<text x="585.09" y="2619.14" style="font-family:'Helvetica';font-size:99.99px;fill:#000000" text-anchor="middle">0</text>
	<line x1="986.41" y1="2489.19" x2="986.41" y2="2529.16" style="stroke:#000000;stroke-width:5.76"/>
	<text x="986.41" y="2619.14" style="font-family:'Helvetica';font-size:99.99px;fill:#000000" text-anchor="middle">1</text>
	<line x1="1387.73" y1="2489.19" x2="1387.73" y2="2529.16" style="stroke:#000000;stroke-width:5.76"/>
	<text x="1387.73" y="2619.14" style="font-family:'Helvetica';font-size:99.99px;fill:#000000" text-anchor="middle">2</text>
	<line x1="1789.05" y1="2489.19" x2="1789.05" y2="2529.16" style="stroke:#000000;stroke-width:5.76"/>
	<text x="1789.05" y="2619.14" style="font-family:'Helvetica';font-size:99.99px;fill:#000000" text-anchor="middle">3</text>
	<line x1="2190.38" y1="2489.19" x2="2190.38" y2="2529.16" style="stroke:#000000;stroke-width:5.76"/>
	<text x="2190.38" y="2619.14" style="font-family:'Helvetica';font-size:99.99px;fill:#000000" text-anchor="middle">4</text>
	<line x1="2591.70" y1="2489.19" x2="2591.70" y2="2529.16" style="stroke:#000000;stroke-width:5.76"/>
	<text x="2591.70" y="2619.14" style="font-family:'Helvetica';font-size:99.99px;fill:#000000" text-anchor="middle">5</text>
	<line x1="2993.02" y1="2489.19" x2="2993.02" y2="2529.16" style="stroke:#000000;stroke-width:5.76"/>
	<text x="2993.02" y="2619.14" style="font-family:'Helvetica';font-size:99.99px;fill:#000000" text-anchor="middle">6</text>
	<line x1="3394.34" y1="2489.19" x2="3394.34" y2="2529.16" style="stroke:#000000;stroke-width:5.76"/>
	<text x="3394.34" y="2619.14" style="font-family:'Helvetica';font-size:99.99px;fill:#000000" text-anchor="middle">7</text>
	<line x1="3795.66" y1="2489.19" x2="3795.66" y2="2529.16" style="stroke:#000000;stroke-width:5.76"/>
	<text x="3795.66" y="2619.14" style="font-family:'Helvetica';font-size:99.99px;fill:#000000" text-anchor="middle">8</text>
	<text x="2190.38" y="2729.16" style="font-family:'Helvetica';font-size:99.99px;fill:#000000" text-anchor="middle">Coffee consumption, cups/day</text>
</svg>
