<?xml version="1.0" encoding="UTF-8" standalone="no"?>
<!-- This is a Stata 16.1 generated SVG file (http://www.stata.com) -->

<svg version="1.1" width="600px" height="436px" viewBox="0 0 3960 2880" xmlns="http://www.w3.org/2000/svg" xmlns:xlink="http://www.w3.org/1999/xlink">
	<desc>Stata Graph - f_l</desc>
	<rect x="0" y="0" width="3960" height="2880" style="fill:#FFFFFF;stroke:none"/>
	<rect x="0.00" y="0.00" width="3959.88" height="2880.00" style="fill:#FFFFFF"/>
	<rect x="2.88" y="2.88" width="3954.12" height="2874.24" style="fill:none;stroke:#FFFFFF;stroke-width:5.76"/>
	<path d=" M528.41 216.69 L528.41 216.69 L732.60 284.02 L936.79 351.46 L1140.97 418.91 L1345.16 486.23 L1549.35 553.67 L1753.66 621.12 L1957.85 688.44 L2162.04 755.89 L2366.22 823.21 L2570.41 890.66 L2774.60 958.10 L2978.79 1025.42 L3183.10 1092.87 L3387.28 1160.32 L3591.47 1227.64 L3795.66 1295.08" stroke-linejoin="round" style="fill:none;stroke:#000000;stroke-width:8.64"/>
	<line x1="528.41" y1="216.69" x2="528.41" y2="216.69" style="stroke:#000000;stroke-width:8.64"/>
	<line x1="528.41" y1="216.69" x2="561.83" y2="239.22" style="stroke:#000000;stroke-width:8.64"/>
	<line x1="576.06" y1="248.99" x2="609.47" y2="271.52" style="stroke:#000000;stroke-width:8.64"/>
	<line x1="623.70" y1="281.17" x2="657.11" y2="303.82" style="stroke:#000000;stroke-width:8.64"/>
	<line x1="671.47" y1="313.47" x2="704.88" y2="335.99" style="stroke:#000000;stroke-width:8.64"/>
	<line x1="719.11" y1="345.64" x2="732.60" y2="354.80" style="stroke:#000000;stroke-width:8.64"/>
	<line x1="732.60" y1="354.80" x2="752.52" y2="368.29" style="stroke:#000000;stroke-width:8.64"/>
	<line x1="766.75" y1="377.82" x2="800.17" y2="400.47" style="stroke:#000000;stroke-width:8.64"/>
	<line x1="814.52" y1="410.12" x2="847.81" y2="432.64" style="stroke:#000000;stroke-width:8.64"/>
	<line x1="862.17" y1="442.30" x2="895.58" y2="464.94" style="stroke:#000000;stroke-width:8.64"/>
	<line x1="909.93" y1="474.60" x2="936.79" y2="492.79" style="stroke:#000000;stroke-width:8.64"/>
	<line x1="936.79" y1="492.79" x2="943.22" y2="497.12" style="stroke:#000000;stroke-width:8.64"/>
	<line x1="957.58" y1="506.90" x2="990.87" y2="529.42" style="stroke:#000000;stroke-width:8.64"/>
	<line x1="1005.22" y1="539.07" x2="1038.51" y2="561.72" style="stroke:#000000;stroke-width:8.64"/>
	<line x1="1052.87" y1="571.25" x2="1086.15" y2="593.89" style="stroke:#000000;stroke-width:8.64"/>
	<line x1="1100.51" y1="603.55" x2="1133.92" y2="626.19" style="stroke:#000000;stroke-width:8.64"/>
	<line x1="1148.15" y1="635.72" x2="1181.57" y2="658.37" style="stroke:#000000;stroke-width:8.64"/>
	<line x1="1195.80" y1="668.02" x2="1229.21" y2="690.67" style="stroke:#000000;stroke-width:8.64"/>
	<line x1="1243.44" y1="700.32" x2="1276.98" y2="722.85" style="stroke:#000000;stroke-width:8.64"/>
	<line x1="1291.21" y1="732.50" x2="1324.62" y2="755.15" style="stroke:#000000;stroke-width:8.64"/>
	<line x1="1338.85" y1="764.80" x2="1345.16" y2="769.01" style="stroke:#000000;stroke-width:8.64"/>
	<line x1="1345.16" y1="769.01" x2="1372.39" y2="787.32" style="stroke:#000000;stroke-width:8.64"/>
	<line x1="1386.62" y1="796.97" x2="1420.03" y2="819.62" style="stroke:#000000;stroke-width:8.64"/>
	<line x1="1434.26" y1="829.27" x2="1467.67" y2="851.92" style="stroke:#000000;stroke-width:8.64"/>
	<line x1="1481.91" y1="861.57" x2="1515.32" y2="884.10" style="stroke:#000000;stroke-width:8.64"/>
	<line x1="1529.67" y1="893.87" x2="1549.35" y2="907.12" style="stroke:#000000;stroke-width:8.64"/>
	<line x1="1549.35" y1="907.12" x2="1563.09" y2="916.40" style="stroke:#000000;stroke-width:8.64"/>
	<line x1="1577.32" y1="926.05" x2="1610.85" y2="948.57" style="stroke:#000000;stroke-width:8.64"/>
	<line x1="1625.09" y1="958.23" x2="1658.50" y2="980.87" style="stroke:#000000;stroke-width:8.64"/>
	<line x1="1672.85" y1="990.53" x2="1706.27" y2="1013.05" style="stroke:#000000;stroke-width:8.64"/>
	<line x1="1720.50" y1="1022.70" x2="1753.66" y2="1045.10" style="stroke:#000000;stroke-width:8.64"/>
	<line x1="1753.66" y1="1045.10" x2="1753.91" y2="1045.35" style="stroke:#000000;stroke-width:8.64"/>
	<line x1="1768.14" y1="1055.00" x2="1801.55" y2="1077.65" style="stroke:#000000;stroke-width:8.64"/>
	<line x1="1815.78" y1="1087.30" x2="1849.32" y2="1109.82" style="stroke:#000000;stroke-width:8.64"/>
	<line x1="1863.55" y1="1119.48" x2="1896.96" y2="1142.12" style="stroke:#000000;stroke-width:8.64"/>
	<line x1="1911.19" y1="1151.78" x2="1944.61" y2="1174.30" style="stroke:#000000;stroke-width:8.64"/>
	<line x1="1958.96" y1="1183.95" x2="1992.25" y2="1206.60" style="stroke:#000000;stroke-width:8.64"/>
	<line x1="2006.61" y1="1216.25" x2="2040.02" y2="1238.78" style="stroke:#000000;stroke-width:8.64"/>
	<line x1="2054.25" y1="1248.43" x2="2087.66" y2="1271.08" style="stroke:#000000;stroke-width:8.64"/>
	<line x1="2102.02" y1="1280.73" x2="2135.43" y2="1303.25" style="stroke:#000000;stroke-width:8.64"/>
	<line x1="2149.66" y1="1312.90" x2="2162.04" y2="1321.32" style="stroke:#000000;stroke-width:8.64"/>
	<line x1="2162.04" y1="1321.32" x2="2183.07" y2="1335.55" style="stroke:#000000;stroke-width:8.64"/>
	<line x1="2197.30" y1="1345.08" x2="2230.72" y2="1367.73" style="stroke:#000000;stroke-width:8.64"/>
	<line x1="2245.07" y1="1377.38" x2="2278.36" y2="1399.90" style="stroke:#000000;stroke-width:8.64"/>
	<line x1="2292.72" y1="1409.56" x2="2326.13" y2="1432.20" style="stroke:#000000;stroke-width:8.64"/>
	<line x1="2340.36" y1="1441.86" x2="2366.22" y2="1459.31" style="stroke:#000000;stroke-width:8.64"/>
	<line x1="2366.22" y1="1459.31" x2="2373.77" y2="1464.38" style="stroke:#000000;stroke-width:8.64"/>
	<line x1="2388.00" y1="1474.16" x2="2421.42" y2="1496.68" style="stroke:#000000;stroke-width:8.64"/>
	<line x1="2435.65" y1="1506.33" x2="2469.18" y2="1528.98" style="stroke:#000000;stroke-width:8.64"/>
	<line x1="2483.41" y1="1538.63" x2="2516.83" y2="1561.28" style="stroke:#000000;stroke-width:8.64"/>
	<line x1="2531.06" y1="1570.81" x2="2564.47" y2="1593.45" style="stroke:#000000;stroke-width:8.64"/>
	<line x1="2578.70" y1="1603.11" x2="2612.11" y2="1625.63" style="stroke:#000000;stroke-width:8.64"/>
	<line x1="2626.35" y1="1635.41" x2="2659.88" y2="1657.93" style="stroke:#000000;stroke-width:8.64"/>
	<line x1="2674.11" y1="1667.58" x2="2707.53" y2="1690.23" style="stroke:#000000;stroke-width:8.64"/>
	<line x1="2721.76" y1="1699.88" x2="2755.29" y2="1722.41" style="stroke:#000000;stroke-width:8.64"/>
	<line x1="2769.53" y1="1732.06" x2="2774.60" y2="1735.52" style="stroke:#000000;stroke-width:8.64"/>
	<line x1="2774.60" y1="1735.52" x2="2802.94" y2="1754.71" style="stroke:#000000;stroke-width:8.64"/>
	<line x1="2817.17" y1="1764.36" x2="2850.58" y2="1787.01" style="stroke:#000000;stroke-width:8.64"/>
	<line x1="2864.81" y1="1796.53" x2="2898.22" y2="1819.18" style="stroke:#000000;stroke-width:8.64"/>
	<line x1="2912.46" y1="1828.83" x2="2945.87" y2="1851.36" style="stroke:#000000;stroke-width:8.64"/>
	<line x1="2960.10" y1="1861.01" x2="2978.79" y2="1873.63" style="stroke:#000000;stroke-width:8.64"/>
	<line x1="2978.79" y1="1873.63" x2="2993.64" y2="1883.66" style="stroke:#000000;stroke-width:8.64"/>
	<line x1="3007.87" y1="1893.31" x2="3041.28" y2="1915.83" style="stroke:#000000;stroke-width:8.64"/>
	<line x1="3055.64" y1="1925.49" x2="3089.05" y2="1948.13" style="stroke:#000000;stroke-width:8.64"/>
	<line x1="3103.40" y1="1957.66" x2="3136.69" y2="1980.31" style="stroke:#000000;stroke-width:8.64"/>
	<line x1="3151.05" y1="1989.96" x2="3183.10" y2="2011.62" style="stroke:#000000;stroke-width:8.64"/>
	<line x1="3183.10" y1="2011.62" x2="3184.46" y2="2012.61" style="stroke:#000000;stroke-width:8.64"/>
	<line x1="3198.69" y1="2022.26" x2="3232.10" y2="2044.79" style="stroke:#000000;stroke-width:8.64"/>
	<line x1="3246.33" y1="2054.56" x2="3279.75" y2="2077.08" style="stroke:#000000;stroke-width:8.64"/>
	<line x1="3294.10" y1="2086.74" x2="3327.39" y2="2109.38" style="stroke:#000000;stroke-width:8.64"/>
	<line x1="3341.74" y1="2119.04" x2="3375.16" y2="2141.56" style="stroke:#000000;stroke-width:8.64"/>
	<line x1="3389.51" y1="2151.21" x2="3422.80" y2="2173.86" style="stroke:#000000;stroke-width:8.64"/>
	<line x1="3437.16" y1="2183.39" x2="3470.45" y2="2206.04" style="stroke:#000000;stroke-width:8.64"/>
	<line x1="3484.80" y1="2215.69" x2="3518.09" y2="2238.34" style="stroke:#000000;stroke-width:8.64"/>
	<line x1="3532.44" y1="2247.87" x2="3565.86" y2="2270.51" style="stroke:#000000;stroke-width:8.64"/>
	<line x1="3580.09" y1="2280.17" x2="3591.47" y2="2287.84" style="stroke:#000000;stroke-width:8.64"/>
	<line x1="3591.47" y1="2287.84" x2="3613.50" y2="2302.69" style="stroke:#000000;stroke-width:8.64"/>
	<line x1="3627.73" y1="2312.46" x2="3661.14" y2="2334.99" style="stroke:#000000;stroke-width:8.64"/>
	<line x1="3675.38" y1="2344.64" x2="3708.91" y2="2367.29" style="stroke:#000000;stroke-width:8.64"/>
	<line x1="3723.14" y1="2376.94" x2="3756.55" y2="2399.46" style="stroke:#000000;stroke-width:8.64"/>
	<line x1="3770.79" y1="2409.12" x2="3795.66" y2="2425.95" style="stroke:#000000;stroke-width:8.64"/>
	<path d="" stroke-linejoin="round" style="fill:none;stroke:#000000;stroke-width:8.64"/>
	<line x1="528.41" y1="216.69" x2="528.41" y2="216.69" style="stroke:#000000;stroke-width:8.64"/>
	<line x1="528.41" y1="216.69" x2="568.75" y2="215.95" style="stroke:#000000;stroke-width:8.64"/>
	<line x1="585.96" y1="215.70" x2="626.30" y2="215.08" style="stroke:#000000;stroke-width:8.64"/>
	<line x1="643.50" y1="214.84" x2="683.84" y2="214.22" style="stroke:#000000;stroke-width:8.64"/>
	<line x1="701.04" y1="213.85" x2="732.60" y2="213.35" style="stroke:#000000;stroke-width:8.64"/>
	<line x1="732.60" y1="213.35" x2="741.39" y2="213.23" style="stroke:#000000;stroke-width:8.64"/>
	<line x1="758.71" y1="212.98" x2="799.05" y2="212.36" style="stroke:#000000;stroke-width:8.64"/>
	<line x1="816.25" y1="211.99" x2="856.60" y2="211.37" style="stroke:#000000;stroke-width:8.64"/>
	<line x1="873.80" y1="211.12" x2="914.14" y2="210.51" style="stroke:#000000;stroke-width:8.64"/>
	<line x1="931.34" y1="210.26" x2="936.79" y2="210.13" style="stroke:#000000;stroke-width:8.64"/>
	<line x1="936.79" y1="210.13" x2="971.68" y2="209.64" style="stroke:#000000;stroke-width:8.64"/>
	<line x1="989.01" y1="209.27" x2="1029.35" y2="208.65" style="stroke:#000000;stroke-width:8.64"/>
	<line x1="1046.55" y1="208.28" x2="1086.90" y2="207.66" style="stroke:#000000;stroke-width:8.64"/>
	<line x1="1104.10" y1="207.41" x2="1140.97" y2="206.79" style="stroke:#000000;stroke-width:8.64"/>
	<line x1="1140.97" y1="206.79" x2="1144.44" y2="206.79" style="stroke:#000000;stroke-width:8.64"/>
	<line x1="1161.64" y1="206.55" x2="1201.98" y2="205.80" style="stroke:#000000;stroke-width:8.64"/>
	<line x1="1219.31" y1="205.56" x2="1259.53" y2="204.94" style="stroke:#000000;stroke-width:8.64"/>
	<line x1="1276.85" y1="204.69" x2="1317.19" y2="203.95" style="stroke:#000000;stroke-width:8.64"/>
	<line x1="1334.40" y1="203.70" x2="1345.16" y2="203.58" style="stroke:#000000;stroke-width:8.64"/>
	<line x1="1345.16" y1="203.58" x2="1374.74" y2="203.08" style="stroke:#000000;stroke-width:8.64"/>
	<line x1="1391.94" y1="202.83" x2="1432.28" y2="202.09" style="stroke:#000000;stroke-width:8.64"/>
	<line x1="1449.48" y1="201.84" x2="1489.83" y2="201.10" style="stroke:#000000;stroke-width:8.64"/>
	<line x1="1507.15" y1="200.85" x2="1547.49" y2="200.23" style="stroke:#000000;stroke-width:8.64"/>
	<line x1="1564.69" y1="199.99" x2="1605.04" y2="199.37" style="stroke:#000000;stroke-width:8.64"/>
	<line x1="1622.24" y1="199.00" x2="1662.58" y2="198.50" style="stroke:#000000;stroke-width:8.64"/>
	<line x1="1679.78" y1="198.13" x2="1720.12" y2="197.51" style="stroke:#000000;stroke-width:8.64"/>
	<line x1="1737.45" y1="197.26" x2="1753.66" y2="197.02" style="stroke:#000000;stroke-width:8.64"/>
	<line x1="1753.66" y1="197.02" x2="1777.79" y2="196.64" style="stroke:#000000;stroke-width:8.64"/>
	<line x1="1794.99" y1="196.27" x2="1835.34" y2="195.65" style="stroke:#000000;stroke-width:8.64"/>
	<line x1="1852.54" y1="195.28" x2="1892.88" y2="194.79" style="stroke:#000000;stroke-width:8.64"/>
	<line x1="1910.08" y1="194.42" x2="1950.42" y2="193.80" style="stroke:#000000;stroke-width:8.64"/>
	<line x1="1967.75" y1="193.55" x2="2007.97" y2="192.93" style="stroke:#000000;stroke-width:8.64"/>
	<line x1="2025.29" y1="192.68" x2="2065.64" y2="191.94" style="stroke:#000000;stroke-width:8.64"/>
	<line x1="2082.84" y1="191.69" x2="2123.18" y2="191.08" style="stroke:#000000;stroke-width:8.64"/>
	<line x1="2140.38" y1="190.83" x2="2162.04" y2="190.46" style="stroke:#000000;stroke-width:8.64"/>
	<line x1="2162.04" y1="190.46" x2="2180.72" y2="190.21" style="stroke:#000000;stroke-width:8.64"/>
	<line x1="2197.92" y1="189.84" x2="2238.27" y2="189.22" style="stroke:#000000;stroke-width:8.64"/>
	<line x1="2255.59" y1="188.85" x2="2295.93" y2="188.23" style="stroke:#000000;stroke-width:8.64"/>
	<line x1="2313.14" y1="187.98" x2="2353.48" y2="187.24" style="stroke:#000000;stroke-width:8.64"/>
	<line x1="2370.68" y1="187.12" x2="2411.02" y2="186.37" style="stroke:#000000;stroke-width:8.64"/>
	<line x1="2428.22" y1="186.13" x2="2468.57" y2="185.51" style="stroke:#000000;stroke-width:8.64"/>
	<line x1="2485.89" y1="185.26" x2="2526.23" y2="184.64" style="stroke:#000000;stroke-width:8.64"/>
	<line x1="2543.43" y1="184.27" x2="2570.41" y2="183.90" style="stroke:#000000;stroke-width:8.64"/>
	<line x1="2570.41" y1="183.90" x2="2583.78" y2="183.65" style="stroke:#000000;stroke-width:8.64"/>
	<line x1="2600.98" y1="183.28" x2="2641.32" y2="182.66" style="stroke:#000000;stroke-width:8.64"/>
	<line x1="2658.52" y1="182.41" x2="2698.86" y2="181.79" style="stroke:#000000;stroke-width:8.64"/>
	<line x1="2716.19" y1="181.42" x2="2756.41" y2="180.80" style="stroke:#000000;stroke-width:8.64"/>
	<line x1="2773.73" y1="180.56" x2="2774.60" y2="180.56" style="stroke:#000000;stroke-width:8.64"/>
	<line x1="2774.60" y1="180.56" x2="2814.07" y2="179.94" style="stroke:#000000;stroke-width:8.64"/>
	<line x1="2831.28" y1="179.69" x2="2871.62" y2="179.07" style="stroke:#000000;stroke-width:8.64"/>
	<line x1="2888.82" y1="178.82" x2="2929.16" y2="178.21" style="stroke:#000000;stroke-width:8.64"/>
	<line x1="2946.36" y1="177.83" x2="2978.79" y2="177.34" style="stroke:#000000;stroke-width:8.64"/>
	<line x1="2978.79" y1="177.34" x2="2986.71" y2="177.22" style="stroke:#000000;stroke-width:8.64"/>
	<line x1="3004.03" y1="176.97" x2="3044.37" y2="176.23" style="stroke:#000000;stroke-width:8.64"/>
	<line x1="3061.57" y1="175.98" x2="3101.92" y2="175.24" style="stroke:#000000;stroke-width:8.64"/>
	<line x1="3119.12" y1="175.11" x2="3159.46" y2="174.37" style="stroke:#000000;stroke-width:8.64"/>
	<line x1="3176.66" y1="174.12" x2="3183.10" y2="174.00" style="stroke:#000000;stroke-width:8.64"/>
	<line x1="3183.10" y1="174.00" x2="3217.01" y2="173.50" style="stroke:#000000;stroke-width:8.64"/>
	<line x1="3234.33" y1="173.26" x2="3274.67" y2="172.51" style="stroke:#000000;stroke-width:8.64"/>
	<line x1="3291.87" y1="172.27" x2="3332.22" y2="171.65" style="stroke:#000000;stroke-width:8.64"/>
	<line x1="3349.42" y1="171.40" x2="3387.28" y2="170.78" style="stroke:#000000;stroke-width:8.64"/>
	<line x1="3387.28" y1="170.78" x2="3389.76" y2="170.78" style="stroke:#000000;stroke-width:8.64"/>
	<line x1="3406.96" y1="170.41" x2="3447.30" y2="169.79" style="stroke:#000000;stroke-width:8.64"/>
	<line x1="3464.63" y1="169.42" x2="3504.85" y2="168.80" style="stroke:#000000;stroke-width:8.64"/>
	<line x1="3522.17" y1="168.55" x2="3562.51" y2="167.93" style="stroke:#000000;stroke-width:8.64"/>
	<line x1="3579.72" y1="167.56" x2="3591.47" y2="167.44" style="stroke:#000000;stroke-width:8.64"/>
	<line x1="3591.47" y1="167.44" x2="3620.06" y2="167.07" style="stroke:#000000;stroke-width:8.64"/>
	<line x1="3637.26" y1="166.70" x2="3677.60" y2="166.08" style="stroke:#000000;stroke-width:8.64"/>
	<line x1="3694.80" y1="165.83" x2="3735.15" y2="165.21" style="stroke:#000000;stroke-width:8.64"/>
	<line x1="3752.47" y1="164.84" x2="3792.81" y2="164.22" style="stroke:#000000;stroke-width:8.64"/>
	<path d="" stroke-linejoin="round" style="fill:none;stroke:#000000;stroke-width:8.64"/>
	<line x1="465.05" y1="2489.19" x2="465.05" y2="100.86" style="stroke:#000000;stroke-width:5.76"/>
	<line x1="465.05" y1="2322.74" x2="425.08" y2="2322.74" style="stroke:#000000;stroke-width:5.76"/>
	<text x="405.03" y="2357.76" style="font-family:'Helvetica';font-size:99.99px;fill:#000000" text-anchor="end">0.8</text>
	<line x1="465.05" y1="1750.50" x2="425.08" y2="1750.50" style="stroke:#000000;stroke-width:5.76"/>
	<text x="405.03" y="1785.53" style="font-family:'Helvetica';font-size:99.99px;fill:#000000" text-anchor="end">0.9</text>
	<line x1="465.05" y1="1211.06" x2="425.08" y2="1211.06" style="stroke:#000000;stroke-width:5.76"/>
	<text x="405.03" y="1246.08" style="font-family:'Helvetica';font-size:99.99px;fill:#000000" text-anchor="end">0.9</text>
	<line x1="465.05" y1="700.69" x2="425.08" y2="700.69" style="stroke:#000000;stroke-width:5.76"/>
	<text x="405.03" y="735.72" style="font-family:'Helvetica';font-size:99.99px;fill:#000000" text-anchor="end">1.0</text>
	<line x1="465.05" y1="216.57" x2="425.08" y2="216.57" style="stroke:#000000;stroke-width:5.76"/>
	<text x="405.03" y="251.60" style="font-family:'Helvetica';font-size:99.99px;fill:#000000" text-anchor="end">1.0</text>
	<text x="190.71" y="1294.96" style="font-family:'Helvetica';font-size:99.99px;fill:#000000" transform="rotate(-90 190.71,1294.96)" text-anchor="middle">Relative Risk</text>
	<line x1="465.05" y1="2489.19" x2="3859.02" y2="2489.19" style="stroke:#000000;stroke-width:5.76"/>
	<line x1="528.41" y1="2489.19" x2="528.41" y2="2529.16" style="stroke:#000000;stroke-width:5.76"/>
	<text x="528.41" y="2619.14" style="font-family:'Helvetica';font-size:99.99px;fill:#000000" text-anchor="middle">0</text>
	<line x1="1345.29" y1="2489.19" x2="1345.29" y2="2529.16" style="stroke:#000000;stroke-width:5.76"/>
	<text x="1345.29" y="2619.14" style="font-family:'Helvetica';font-size:99.99px;fill:#000000" text-anchor="middle">2</text>
	<line x1="2162.04" y1="2489.19" x2="2162.04" y2="2529.16" style="stroke:#000000;stroke-width:5.76"/>
	<text x="2162.04" y="2619.14" style="font-family:'Helvetica';font-size:99.99px;fill:#000000" text-anchor="middle">4</text>
	<line x1="2978.91" y1="2489.19" x2="2978.91" y2="2529.16" style="stroke:#000000;stroke-width:5.76"/>
	<text x="2978.91" y="2619.14" style="font-family:'Helvetica';font-size:99.99px;fill:#000000" text-anchor="middle">6</text>
	<line x1="3795.78" y1="2489.19" x2="3795.78" y2="2529.16" style="stroke:#000000;stroke-width:5.76"/>
	<text x="3795.78" y="2619.14" style="font-family:'Helvetica';font-size:99.99px;fill:#000000" text-anchor="middle">8</text>
	<text x="2162.04" y="2729.16" style="font-family:'Helvetica';font-size:99.99px;fill:#000000" text-anchor="middle">Coffee consumption, cups/day</text>
</svg>
