<?xml version="1.0" encoding="UTF-8" standalone="no"?>
<!-- This is a Stata 16.1 generated SVG file (http://www.stata.com) -->

<svg version="1.1" width="600px" height="436px" viewBox="0 0 3960 2880" xmlns="http://www.w3.org/2000/svg" xmlns:xlink="http://www.w3.org/1999/xlink">
	<desc>Stata Graph - f_l</desc>
	<rect x="0" y="0" width="3960" height="2880" style="fill:#FFFFFF;stroke:none"/>
	<rect x="0.00" y="0.00" width="3959.88" height="2880.00" style="fill:#FFFFFF"/>
	<rect x="2.88" y="2.88" width="3954.12" height="2874.24" style="fill:none;stroke:#FFFFFF;stroke-width:5.76"/>
	<line x1="454.04" y1="216.69" x2="487.70" y2="238.84" style="stroke:#000000;stroke-width:8.64"/>
	<line x1="502.05" y1="248.37" x2="535.71" y2="270.65" style="stroke:#000000;stroke-width:8.64"/>
	<line x1="550.07" y1="280.18" x2="583.73" y2="302.33" style="stroke:#000000;stroke-width:8.64"/>
	<line x1="598.08" y1="311.86" x2="631.74" y2="334.14" style="stroke:#000000;stroke-width:8.64"/>
	<line x1="646.10" y1="343.66" x2="662.93" y2="354.80" style="stroke:#000000;stroke-width:8.64"/>
	<line x1="662.93" y1="354.80" x2="679.76" y2="365.94" style="stroke:#000000;stroke-width:8.64"/>
	<line x1="694.11" y1="375.47" x2="727.77" y2="397.62" style="stroke:#000000;stroke-width:8.64"/>
	<line x1="742.13" y1="407.15" x2="775.79" y2="429.43" style="stroke:#000000;stroke-width:8.64"/>
	<line x1="790.14" y1="438.95" x2="823.68" y2="461.11" style="stroke:#000000;stroke-width:8.64"/>
	<line x1="838.16" y1="470.64" x2="871.70" y2="492.91" style="stroke:#000000;stroke-width:8.64"/>
	<line x1="886.17" y1="502.44" x2="919.71" y2="524.59" style="stroke:#000000;stroke-width:8.64"/>
	<line x1="934.19" y1="534.12" x2="967.73" y2="556.40" style="stroke:#000000;stroke-width:8.64"/>
	<line x1="982.08" y1="565.93" x2="1015.74" y2="588.08" style="stroke:#000000;stroke-width:8.64"/>
	<line x1="1030.10" y1="597.61" x2="1063.76" y2="619.88" style="stroke:#000000;stroke-width:8.64"/>
	<line x1="1078.11" y1="629.41" x2="1111.77" y2="651.56" style="stroke:#000000;stroke-width:8.64"/>
	<line x1="1126.12" y1="661.09" x2="1159.79" y2="683.37" style="stroke:#000000;stroke-width:8.64"/>
	<line x1="1174.14" y1="692.90" x2="1207.80" y2="715.05" style="stroke:#000000;stroke-width:8.64"/>
	<line x1="1222.28" y1="724.58" x2="1255.82" y2="746.85" style="stroke:#000000;stroke-width:8.64"/>
	<line x1="1270.29" y1="756.38" x2="1289.47" y2="769.01" style="stroke:#000000;stroke-width:8.64"/>
	<line x1="1289.47" y1="769.01" x2="1303.95" y2="778.54" style="stroke:#000000;stroke-width:8.64"/>
	<line x1="1318.31" y1="788.06" x2="1351.97" y2="810.34" style="stroke:#000000;stroke-width:8.64"/>
	<line x1="1366.32" y1="819.87" x2="1399.98" y2="842.02" style="stroke:#000000;stroke-width:8.64"/>
	<line x1="1414.34" y1="851.55" x2="1448.00" y2="873.83" style="stroke:#000000;stroke-width:8.64"/>
	<line x1="1462.35" y1="883.36" x2="1496.01" y2="905.51" style="stroke:#000000;stroke-width:8.64"/>
	<line x1="1510.37" y1="915.04" x2="1544.03" y2="937.31" style="stroke:#000000;stroke-width:8.64"/>
	<line x1="1558.38" y1="946.84" x2="1591.92" y2="968.99" style="stroke:#000000;stroke-width:8.64"/>
	<line x1="1606.40" y1="978.52" x2="1639.93" y2="1000.80" style="stroke:#000000;stroke-width:8.64"/>
	<line x1="1654.41" y1="1010.33" x2="1687.95" y2="1032.48" style="stroke:#000000;stroke-width:8.64"/>
	<line x1="1702.43" y1="1042.01" x2="1735.96" y2="1064.28" style="stroke:#000000;stroke-width:8.64"/>
	<line x1="1750.32" y1="1073.81" x2="1783.98" y2="1095.96" style="stroke:#000000;stroke-width:8.64"/>
	<line x1="1798.34" y1="1105.49" x2="1831.99" y2="1127.77" style="stroke:#000000;stroke-width:8.64"/>
	<line x1="1846.35" y1="1137.30" x2="1880.01" y2="1159.45" style="stroke:#000000;stroke-width:8.64"/>
	<line x1="1894.37" y1="1168.98" x2="1928.03" y2="1191.25" style="stroke:#000000;stroke-width:8.64"/>
	<line x1="1942.38" y1="1200.78" x2="1976.04" y2="1222.94" style="stroke:#000000;stroke-width:8.64"/>
	<line x1="1990.39" y1="1232.46" x2="2024.06" y2="1254.74" style="stroke:#000000;stroke-width:8.64"/>
	<line x1="2038.41" y1="1264.27" x2="2072.07" y2="1286.42" style="stroke:#000000;stroke-width:8.64"/>
	<line x1="2086.43" y1="1295.95" x2="2120.09" y2="1318.23" style="stroke:#000000;stroke-width:8.64"/>
	<line x1="2134.44" y1="1327.63" x2="2168.10" y2="1349.91" style="stroke:#000000;stroke-width:8.64"/>
	<line x1="2182.45" y1="1359.44" x2="2216.11" y2="1381.71" style="stroke:#000000;stroke-width:8.64"/>
	<line x1="2230.47" y1="1391.12" x2="2264.13" y2="1413.39" style="stroke:#000000;stroke-width:8.64"/>
	<line x1="2278.49" y1="1422.92" x2="2312.14" y2="1445.20" style="stroke:#000000;stroke-width:8.64"/>
	<line x1="2326.50" y1="1454.60" x2="2360.16" y2="1476.88" style="stroke:#000000;stroke-width:8.64"/>
	<line x1="2374.51" y1="1486.41" x2="2408.05" y2="1508.68" style="stroke:#000000;stroke-width:8.64"/>
	<line x1="2422.53" y1="1518.09" x2="2456.07" y2="1540.36" style="stroke:#000000;stroke-width:8.64"/>
	<line x1="2470.55" y1="1549.89" x2="2504.20" y2="1572.05" style="stroke:#000000;stroke-width:8.64"/>
	<line x1="2518.56" y1="1581.57" x2="2542.57" y2="1597.41" style="stroke:#000000;stroke-width:8.64"/>
	<line x1="2542.57" y1="1597.41" x2="2552.22" y2="1603.85" style="stroke:#000000;stroke-width:8.64"/>
	<line x1="2566.57" y1="1613.26" x2="2600.24" y2="1635.53" style="stroke:#000000;stroke-width:8.64"/>
	<line x1="2614.59" y1="1645.06" x2="2648.25" y2="1667.34" style="stroke:#000000;stroke-width:8.64"/>
	<line x1="2662.61" y1="1676.74" x2="2696.26" y2="1699.02" style="stroke:#000000;stroke-width:8.64"/>
	<line x1="2710.62" y1="1708.55" x2="2744.28" y2="1730.82" style="stroke:#000000;stroke-width:8.64"/>
	<line x1="2758.64" y1="1740.23" x2="2792.17" y2="1762.50" style="stroke:#000000;stroke-width:8.64"/>
	<line x1="2806.65" y1="1772.03" x2="2840.19" y2="1794.31" style="stroke:#000000;stroke-width:8.64"/>
	<line x1="2854.66" y1="1803.71" x2="2888.20" y2="1825.99" style="stroke:#000000;stroke-width:8.64"/>
	<line x1="2902.68" y1="1835.52" x2="2936.22" y2="1857.79" style="stroke:#000000;stroke-width:8.64"/>
	<line x1="2950.57" y1="1867.20" x2="2984.23" y2="1889.47" style="stroke:#000000;stroke-width:8.64"/>
	<line x1="2998.59" y1="1899.00" x2="3032.25" y2="1921.28" style="stroke:#000000;stroke-width:8.64"/>
	<line x1="3046.60" y1="1930.68" x2="3080.26" y2="1952.96" style="stroke:#000000;stroke-width:8.64"/>
	<line x1="3094.62" y1="1962.49" x2="3128.28" y2="1984.76" style="stroke:#000000;stroke-width:8.64"/>
	<line x1="3142.63" y1="1994.17" x2="3176.29" y2="2016.45" style="stroke:#000000;stroke-width:8.64"/>
	<line x1="3190.65" y1="2025.97" x2="3224.31" y2="2048.25" style="stroke:#000000;stroke-width:8.64"/>
	<line x1="3238.66" y1="2057.66" x2="3272.32" y2="2079.93" style="stroke:#000000;stroke-width:8.64"/>
	<line x1="3286.68" y1="2089.46" x2="3320.34" y2="2111.74" style="stroke:#000000;stroke-width:8.64"/>
	<line x1="3334.69" y1="2121.14" x2="3368.35" y2="2143.42" style="stroke:#000000;stroke-width:8.64"/>
	<line x1="3382.71" y1="2152.95" x2="3416.37" y2="2175.10" style="stroke:#000000;stroke-width:8.64"/>
	<line x1="3430.72" y1="2184.63" x2="3464.38" y2="2206.90" style="stroke:#000000;stroke-width:8.64"/>
	<line x1="3478.74" y1="2216.43" x2="3512.40" y2="2238.58" style="stroke:#000000;stroke-width:8.64"/>
	<line x1="3526.75" y1="2248.11" x2="3560.29" y2="2270.39" style="stroke:#000000;stroke-width:8.64"/>
	<line x1="3574.77" y1="2279.92" x2="3608.30" y2="2302.07" style="stroke:#000000;stroke-width:8.64"/>
	<line x1="3622.78" y1="2311.60" x2="3656.32" y2="2333.87" style="stroke:#000000;stroke-width:8.64"/>
	<line x1="3670.80" y1="2343.40" x2="3704.33" y2="2365.56" style="stroke:#000000;stroke-width:8.64"/>
	<line x1="3718.69" y1="2375.08" x2="3752.35" y2="2397.36" style="stroke:#000000;stroke-width:8.64"/>
	<line x1="3766.70" y1="2406.89" x2="3795.66" y2="2425.95" style="stroke:#000000;stroke-width:8.64"/>
	<path d="" stroke-linejoin="round" style="fill:none;stroke:#000000;stroke-width:8.64"/>
	<line x1="454.04" y1="216.69" x2="494.38" y2="216.07" style="stroke:#000000;stroke-width:8.64"/>
	<line x1="511.58" y1="215.70" x2="551.92" y2="215.08" style="stroke:#000000;stroke-width:8.64"/>
	<line x1="569.25" y1="214.84" x2="609.59" y2="214.22" style="stroke:#000000;stroke-width:8.64"/>
	<line x1="626.79" y1="213.97" x2="662.93" y2="213.35" style="stroke:#000000;stroke-width:8.64"/>
	<line x1="662.93" y1="213.35" x2="667.14" y2="213.35" style="stroke:#000000;stroke-width:8.64"/>
	<line x1="684.34" y1="213.10" x2="724.68" y2="212.49" style="stroke:#000000;stroke-width:8.64"/>
	<line x1="741.88" y1="212.24" x2="782.22" y2="211.62" style="stroke:#000000;stroke-width:8.64"/>
	<line x1="799.55" y1="211.37" x2="839.77" y2="210.75" style="stroke:#000000;stroke-width:8.64"/>
	<line x1="857.09" y1="210.51" x2="897.43" y2="209.76" style="stroke:#000000;stroke-width:8.64"/>
	<line x1="914.64" y1="209.52" x2="954.98" y2="208.90" style="stroke:#000000;stroke-width:8.64"/>
	<line x1="972.18" y1="208.65" x2="1012.52" y2="207.91" style="stroke:#000000;stroke-width:8.64"/>
	<line x1="1029.72" y1="207.66" x2="1070.07" y2="207.04" style="stroke:#000000;stroke-width:8.64"/>
	<line x1="1087.39" y1="206.79" x2="1127.73" y2="206.17" style="stroke:#000000;stroke-width:8.64"/>
	<line x1="1144.93" y1="205.93" x2="1185.28" y2="205.18" style="stroke:#000000;stroke-width:8.64"/>
	<line x1="1202.48" y1="204.94" x2="1242.82" y2="204.32" style="stroke:#000000;stroke-width:8.64"/>
	<line x1="1260.02" y1="204.07" x2="1289.47" y2="203.58" style="stroke:#000000;stroke-width:8.64"/>
	<line x1="1289.47" y1="203.58" x2="1300.37" y2="203.33" style="stroke:#000000;stroke-width:8.64"/>
	<line x1="1317.69" y1="203.08" x2="1358.03" y2="202.59" style="stroke:#000000;stroke-width:8.64"/>
	<line x1="1375.23" y1="202.34" x2="1415.58" y2="201.72" style="stroke:#000000;stroke-width:8.64"/>
	<line x1="1432.78" y1="201.47" x2="1473.12" y2="200.85" style="stroke:#000000;stroke-width:8.64"/>
	<line x1="1490.32" y1="200.61" x2="1530.66" y2="199.86" style="stroke:#000000;stroke-width:8.64"/>
	<line x1="1547.99" y1="199.61" x2="1588.21" y2="199.00" style="stroke:#000000;stroke-width:8.64"/>
	<line x1="1605.53" y1="198.75" x2="1645.88" y2="198.13" style="stroke:#000000;stroke-width:8.64"/>
	<line x1="1663.08" y1="197.88" x2="1703.42" y2="197.26" style="stroke:#000000;stroke-width:8.64"/>
	<line x1="1720.62" y1="197.02" x2="1760.96" y2="196.27" style="stroke:#000000;stroke-width:8.64"/>
	<line x1="1778.16" y1="196.03" x2="1818.51" y2="195.41" style="stroke:#000000;stroke-width:8.64"/>
	<line x1="1835.83" y1="195.04" x2="1876.17" y2="194.54" style="stroke:#000000;stroke-width:8.64"/>
	<line x1="1893.38" y1="194.17" x2="1933.72" y2="193.55" style="stroke:#000000;stroke-width:8.64"/>
	<line x1="1950.92" y1="193.30" x2="1991.26" y2="192.68" style="stroke:#000000;stroke-width:8.64"/>
	<line x1="2008.46" y1="192.31" x2="2048.80" y2="191.69" style="stroke:#000000;stroke-width:8.64"/>
	<line x1="2066.13" y1="191.45" x2="2106.47" y2="190.83" style="stroke:#000000;stroke-width:8.64"/>
	<line x1="2123.67" y1="190.58" x2="2164.02" y2="189.96" style="stroke:#000000;stroke-width:8.64"/>
	<line x1="2181.22" y1="189.59" x2="2221.56" y2="188.97" style="stroke:#000000;stroke-width:8.64"/>
	<line x1="2238.76" y1="188.72" x2="2279.10" y2="188.11" style="stroke:#000000;stroke-width:8.64"/>
	<line x1="2296.43" y1="187.73" x2="2336.65" y2="187.12" style="stroke:#000000;stroke-width:8.64"/>
	<line x1="2353.97" y1="186.87" x2="2394.32" y2="186.25" style="stroke:#000000;stroke-width:8.64"/>
	<line x1="2411.52" y1="186.00" x2="2451.86" y2="185.38" style="stroke:#000000;stroke-width:8.64"/>
	<line x1="2469.06" y1="185.01" x2="2509.40" y2="184.39" style="stroke:#000000;stroke-width:8.64"/>
	<line x1="2526.60" y1="184.15" x2="2542.57" y2="183.90" style="stroke:#000000;stroke-width:8.64"/>
	<line x1="2542.57" y1="183.90" x2="2566.95" y2="183.53" style="stroke:#000000;stroke-width:8.64"/>
	<line x1="2584.27" y1="183.28" x2="2624.61" y2="182.66" style="stroke:#000000;stroke-width:8.64"/>
	<line x1="2641.82" y1="182.41" x2="2682.16" y2="181.79" style="stroke:#000000;stroke-width:8.64"/>
	<line x1="2699.36" y1="181.55" x2="2739.70" y2="180.93" style="stroke:#000000;stroke-width:8.64"/>
	<line x1="2756.90" y1="180.68" x2="2797.24" y2="180.06" style="stroke:#000000;stroke-width:8.64"/>
	<line x1="2814.57" y1="179.81" x2="2854.91" y2="179.20" style="stroke:#000000;stroke-width:8.64"/>
	<line x1="2872.11" y1="178.95" x2="2912.46" y2="178.21" style="stroke:#000000;stroke-width:8.64"/>
	<line x1="2929.66" y1="177.96" x2="2970.00" y2="177.34" style="stroke:#000000;stroke-width:8.64"/>
	<line x1="2987.20" y1="177.09" x2="3027.54" y2="176.35" style="stroke:#000000;stroke-width:8.64"/>
	<line x1="3044.87" y1="176.10" x2="3085.09" y2="175.48" style="stroke:#000000;stroke-width:8.64"/>
	<line x1="3102.41" y1="175.24" x2="3142.76" y2="174.62" style="stroke:#000000;stroke-width:8.64"/>
	<line x1="3159.96" y1="174.37" x2="3200.30" y2="173.63" style="stroke:#000000;stroke-width:8.64"/>
	<line x1="3217.50" y1="173.38" x2="3257.84" y2="172.76" style="stroke:#000000;stroke-width:8.64"/>
	<line x1="3275.04" y1="172.51" x2="3315.39" y2="171.77" style="stroke:#000000;stroke-width:8.64"/>
	<line x1="3332.71" y1="171.52" x2="3373.05" y2="170.90" style="stroke:#000000;stroke-width:8.64"/>
	<line x1="3390.26" y1="170.66" x2="3430.60" y2="170.04" style="stroke:#000000;stroke-width:8.64"/>
	<line x1="3447.80" y1="169.79" x2="3488.14" y2="169.05" style="stroke:#000000;stroke-width:8.64"/>
	<line x1="3505.34" y1="168.80" x2="3545.68" y2="168.18" style="stroke:#000000;stroke-width:8.64"/>
	<line x1="3563.01" y1="167.93" x2="3603.35" y2="167.32" style="stroke:#000000;stroke-width:8.64"/>
	<line x1="3620.55" y1="167.07" x2="3660.90" y2="166.33" style="stroke:#000000;stroke-width:8.64"/>
	<line x1="3678.10" y1="166.08" x2="3718.44" y2="165.46" style="stroke:#000000;stroke-width:8.64"/>
	<line x1="3735.64" y1="165.21" x2="3775.98" y2="164.47" style="stroke:#000000;stroke-width:8.64"/>
	<line x1="3793.31" y1="164.22" x2="3795.66" y2="164.22" style="stroke:#000000;stroke-width:8.64"/>
	<path d="" stroke-linejoin="round" style="fill:none;stroke:#000000;stroke-width:8.64"/>
	<circle cx="454.04" cy="216.69" r="4.57" style="fill:#FF0000;fill-opacity:0.20"/>
	<circle cx="454.04" cy="216.69" r="0.25" style="fill:none;stroke:#FF0000;stroke-opacity:0.20;stroke-width:8.64"/>
	<circle cx="662.93" cy="601.94" r="46.52" style="fill:#FF0000;fill-opacity:0.20"/>
	<circle cx="662.93" cy="601.94" r="42.20" style="fill:none;stroke:#FF0000;stroke-opacity:0.20;stroke-width:8.64"/>
	<circle cx="1289.47" cy="800.69" r="61.24" style="fill:#FF0000;fill-opacity:0.20"/>
	<circle cx="1289.47" cy="800.69" r="56.92" style="fill:none;stroke:#FF0000;stroke-opacity:0.20;stroke-width:8.64"/>
	<circle cx="2542.57" cy="901.67" r="47.38" style="fill:#FF0000;fill-opacity:0.20"/>
	<circle cx="2542.57" cy="901.67" r="43.06" style="fill:none;stroke:#FF0000;stroke-opacity:0.20;stroke-width:8.64"/>
	<circle cx="3795.66" cy="1423.17" r="37.36" style="fill:#FF0000;fill-opacity:0.20"/>
	<circle cx="3795.66" cy="1423.17" r="33.04" style="fill:none;stroke:#FF0000;stroke-opacity:0.20;stroke-width:8.64"/>
	<path d=" M454.04 216.69 L662.93 284.02 L1289.47 486.23 L2542.57 890.66 L3795.66 1295.08" stroke-linejoin="round" style="fill:none;stroke:#404040;stroke-width:8.64"/>
	<line x1="390.80" y1="2489.19" x2="390.80" y2="100.86" style="stroke:#000000;stroke-width:5.76"/>
	<line x1="390.80" y1="2322.74" x2="350.83" y2="2322.74" style="stroke:#000000;stroke-width:5.76"/>
	<text x="300.72" y="2322.74" style="font-family:'Helvetica';font-size:99.99px;fill:#000000" transform="rotate(-90 300.72,2322.74)" text-anchor="middle">.8</text>
	<line x1="390.80" y1="1750.50" x2="350.83" y2="1750.50" style="stroke:#000000;stroke-width:5.76"/>
	<text x="300.72" y="1750.50" style="font-family:'Helvetica';font-size:99.99px;fill:#000000" transform="rotate(-90 300.72,1750.50)" text-anchor="middle">.85</text>
	<line x1="390.80" y1="1211.06" x2="350.83" y2="1211.06" style="stroke:#000000;stroke-width:5.76"/>
	<text x="300.72" y="1211.06" style="font-family:'Helvetica';font-size:99.99px;fill:#000000" transform="rotate(-90 300.72,1211.06)" text-anchor="middle">.9</text>
	<line x1="390.80" y1="700.69" x2="350.83" y2="700.69" style="stroke:#000000;stroke-width:5.76"/>
	<text x="300.72" y="700.69" style="font-family:'Helvetica';font-size:99.99px;fill:#000000" transform="rotate(-90 300.72,700.69)" text-anchor="middle">.95</text>
	<line x1="390.80" y1="216.57" x2="350.83" y2="216.57" style="stroke:#000000;stroke-width:5.76"/>
	<text x="300.72" y="216.57" style="font-family:'Helvetica';font-size:99.99px;fill:#000000" transform="rotate(-90 300.72,216.57)" text-anchor="middle">1</text>
	<text x="190.71" y="1294.96" style="font-family:'Helvetica';font-size:99.99px;fill:#000000" transform="rotate(-90 190.71,1294.96)" text-anchor="middle">Relative Risk</text>
	<line x1="390.80" y1="2489.19" x2="3859.02" y2="2489.19" style="stroke:#000000;stroke-width:5.76"/>
	<line x1="454.16" y1="2489.19" x2="454.16" y2="2529.16" style="stroke:#000000;stroke-width:5.76"/>
	<text x="454.16" y="2619.14" style="font-family:'Helvetica';font-size:99.99px;fill:#000000" text-anchor="middle">0</text>
	<line x1="1289.47" y1="2489.19" x2="1289.47" y2="2529.16" style="stroke:#000000;stroke-width:5.76"/>
	<text x="1289.47" y="2619.14" style="font-family:'Helvetica';font-size:99.99px;fill:#000000" text-anchor="middle">2</text>
	<line x1="2124.91" y1="2489.19" x2="2124.91" y2="2529.16" style="stroke:#000000;stroke-width:5.76"/>
	<text x="2124.91" y="2619.14" style="font-family:'Helvetica';font-size:99.99px;fill:#000000" text-anchor="middle">4</text>
	<line x1="2960.35" y1="2489.19" x2="2960.35" y2="2529.16" style="stroke:#000000;stroke-width:5.76"/>
	<text x="2960.35" y="2619.14" style="font-family:'Helvetica';font-size:99.99px;fill:#000000" text-anchor="middle">6</text>
	<line x1="3795.66" y1="2489.19" x2="3795.66" y2="2529.16" style="stroke:#000000;stroke-width:5.76"/>
	<text x="3795.66" y="2619.14" style="font-family:'Helvetica';font-size:99.99px;fill:#000000" text-anchor="middle">8</text>
	<text x="2124.91" y="2729.16" style="font-family:'Helvetica';font-size:99.99px;fill:#000000" text-anchor="middle">Coffee consumption, cups/day</text>
</svg>
