<?xml version="1.0" encoding="UTF-8" standalone="no"?>
<!-- This is a Stata 16.1 generated SVG file (http://www.stata.com) -->

<svg version="1.1" width="600px" height="436px" viewBox="0 0 3960 2880" xmlns="http://www.w3.org/2000/svg" xmlns:xlink="http://www.w3.org/1999/xlink">
	<desc>Stata Graph - f_q</desc>
	<rect x="0" y="0" width="3960" height="2880" style="fill:#FFFFFF;stroke:none"/>
	<rect x="0.00" y="0.00" width="3959.88" height="2880.00" style="fill:#FFFFFF"/>
	<rect x="2.88" y="2.88" width="3954.12" height="2874.24" style="fill:none;stroke:#FFFFFF;stroke-width:5.76"/>
	<path d=" M528.41 553.92 L528.41 553.92 L732.60 645.62 L936.79 731.88 L1140.97 812.82 L1345.16 888.31 L1549.35 958.35 L1753.66 1022.95 L1957.85 1082.10 L2162.04 1135.81 L2366.22 1184.20 L2570.41 1227.14 L2774.60 1264.64 L2978.79 1296.69 L3183.10 1323.30 L3387.28 1344.46 L3591.47 1360.30 L3795.66 1370.70" stroke-linejoin="round" style="fill:none;stroke:#000000;stroke-width:8.64"/>
	<line x1="528.41" y1="553.92" x2="528.41" y2="553.92" style="stroke:#000000;stroke-width:8.64"/>
	<line x1="528.41" y1="553.92" x2="553.04" y2="585.85" style="stroke:#000000;stroke-width:8.64"/>
	<line x1="563.56" y1="599.46" x2="588.31" y2="631.27" style="stroke:#000000;stroke-width:8.64"/>
	<line x1="598.83" y1="645.01" x2="623.58" y2="676.81" style="stroke:#000000;stroke-width:8.64"/>
	<line x1="634.10" y1="690.42" x2="658.85" y2="722.35" style="stroke:#000000;stroke-width:8.64"/>
	<line x1="669.36" y1="735.96" x2="694.11" y2="767.89" style="stroke:#000000;stroke-width:8.64"/>
	<line x1="704.63" y1="781.51" x2="729.38" y2="813.31" style="stroke:#000000;stroke-width:8.64"/>
	<line x1="740.52" y1="826.55" x2="767.00" y2="857.00" style="stroke:#000000;stroke-width:8.64"/>
	<line x1="778.26" y1="869.99" x2="804.75" y2="900.43" style="stroke:#000000;stroke-width:8.64"/>
	<line x1="816.13" y1="913.43" x2="842.61" y2="943.87" style="stroke:#000000;stroke-width:8.64"/>
	<line x1="853.88" y1="956.86" x2="880.36" y2="987.31" style="stroke:#000000;stroke-width:8.64"/>
	<line x1="891.62" y1="1000.30" x2="918.10" y2="1030.75" style="stroke:#000000;stroke-width:8.64"/>
	<line x1="929.49" y1="1043.74" x2="936.79" y2="1052.28" style="stroke:#000000;stroke-width:8.64"/>
	<line x1="936.79" y1="1052.28" x2="957.33" y2="1072.95" style="stroke:#000000;stroke-width:8.64"/>
	<line x1="969.46" y1="1085.20" x2="997.80" y2="1113.91" style="stroke:#000000;stroke-width:8.64"/>
	<line x1="1009.92" y1="1126.16" x2="1038.26" y2="1154.87" style="stroke:#000000;stroke-width:8.64"/>
	<line x1="1050.39" y1="1167.12" x2="1078.85" y2="1195.83" style="stroke:#000000;stroke-width:8.64"/>
	<line x1="1090.98" y1="1208.09" x2="1119.32" y2="1236.67" style="stroke:#000000;stroke-width:8.64"/>
	<line x1="1131.45" y1="1248.92" x2="1140.97" y2="1258.58" style="stroke:#000000;stroke-width:8.64"/>
	<line x1="1140.97" y1="1258.58" x2="1161.15" y2="1276.15" style="stroke:#000000;stroke-width:8.64"/>
	<line x1="1174.14" y1="1287.54" x2="1204.58" y2="1314.02" style="stroke:#000000;stroke-width:8.64"/>
	<line x1="1217.58" y1="1325.40" x2="1247.89" y2="1351.89" style="stroke:#000000;stroke-width:8.64"/>
	<line x1="1260.89" y1="1363.27" x2="1291.33" y2="1389.76" style="stroke:#000000;stroke-width:8.64"/>
	<line x1="1304.33" y1="1401.14" x2="1334.64" y2="1427.62" style="stroke:#000000;stroke-width:8.64"/>
	<line x1="1347.76" y1="1438.76" x2="1380.18" y2="1462.77" style="stroke:#000000;stroke-width:8.64"/>
	<line x1="1394.04" y1="1473.04" x2="1426.47" y2="1497.05" style="stroke:#000000;stroke-width:8.64"/>
	<line x1="1440.33" y1="1507.20" x2="1472.75" y2="1531.21" style="stroke:#000000;stroke-width:8.64"/>
	<line x1="1486.61" y1="1541.48" x2="1519.03" y2="1565.49" style="stroke:#000000;stroke-width:8.64"/>
	<line x1="1532.89" y1="1575.76" x2="1549.35" y2="1587.89" style="stroke:#000000;stroke-width:8.64"/>
	<line x1="1549.35" y1="1587.89" x2="1566.30" y2="1598.28" style="stroke:#000000;stroke-width:8.64"/>
	<line x1="1580.91" y1="1607.32" x2="1615.43" y2="1628.35" style="stroke:#000000;stroke-width:8.64"/>
	<line x1="1630.04" y1="1637.26" x2="1664.44" y2="1658.30" style="stroke:#000000;stroke-width:8.64"/>
	<line x1="1679.16" y1="1667.34" x2="1713.57" y2="1688.37" style="stroke:#000000;stroke-width:8.64"/>
	<line x1="1728.29" y1="1697.41" x2="1753.66" y2="1712.88" style="stroke:#000000;stroke-width:8.64"/>
	<line x1="1753.66" y1="1712.88" x2="1763.19" y2="1717.58" style="stroke:#000000;stroke-width:8.64"/>
	<line x1="1778.66" y1="1725.13" x2="1814.92" y2="1742.95" style="stroke:#000000;stroke-width:8.64"/>
	<line x1="1830.39" y1="1750.62" x2="1866.52" y2="1768.32" style="stroke:#000000;stroke-width:8.64"/>
	<line x1="1881.99" y1="1775.99" x2="1918.25" y2="1793.69" style="stroke:#000000;stroke-width:8.64"/>
	<line x1="1933.72" y1="1801.36" x2="1957.85" y2="1813.12" style="stroke:#000000;stroke-width:8.64"/>
	<line x1="1957.85" y1="1813.12" x2="1970.47" y2="1817.94" style="stroke:#000000;stroke-width:8.64"/>
	<line x1="1986.56" y1="1824.13" x2="2024.18" y2="1838.49" style="stroke:#000000;stroke-width:8.64"/>
	<line x1="2040.39" y1="1844.55" x2="2078.13" y2="1858.91" style="stroke:#000000;stroke-width:8.64"/>
	<line x1="2094.22" y1="1865.09" x2="2131.97" y2="1879.33" style="stroke:#000000;stroke-width:8.64"/>
	<line x1="2148.05" y1="1885.51" x2="2162.04" y2="1890.84" style="stroke:#000000;stroke-width:8.64"/>
	<line x1="2162.04" y1="1890.84" x2="2186.41" y2="1897.77" style="stroke:#000000;stroke-width:8.64"/>
	<line x1="2203.00" y1="1902.47" x2="2241.73" y2="1913.61" style="stroke:#000000;stroke-width:8.64"/>
	<line x1="2258.31" y1="1918.31" x2="2297.05" y2="1929.45" style="stroke:#000000;stroke-width:8.64"/>
	<line x1="2313.63" y1="1934.15" x2="2352.36" y2="1945.29" style="stroke:#000000;stroke-width:8.64"/>
	<line x1="2368.95" y1="1949.87" x2="2408.42" y2="1958.28" style="stroke:#000000;stroke-width:8.64"/>
	<line x1="2425.38" y1="1961.87" x2="2464.73" y2="1970.29" style="stroke:#000000;stroke-width:8.64"/>
	<line x1="2481.68" y1="1973.87" x2="2521.03" y2="1982.29" style="stroke:#000000;stroke-width:8.64"/>
	<line x1="2537.99" y1="1985.88" x2="2570.41" y2="1992.81" style="stroke:#000000;stroke-width:8.64"/>
	<line x1="2570.41" y1="1992.81" x2="2577.47" y2="1994.05" style="stroke:#000000;stroke-width:8.64"/>
	<line x1="2594.42" y1="1996.89" x2="2634.14" y2="2003.82" style="stroke:#000000;stroke-width:8.64"/>
	<line x1="2651.22" y1="2006.67" x2="2690.94" y2="2013.48" style="stroke:#000000;stroke-width:8.64"/>
	<line x1="2707.90" y1="2016.45" x2="2747.62" y2="2023.38" style="stroke:#000000;stroke-width:8.64"/>
	<line x1="2764.57" y1="2026.22" x2="2774.60" y2="2027.95" style="stroke:#000000;stroke-width:8.64"/>
	<line x1="2774.60" y1="2027.95" x2="2804.42" y2="2033.15" style="stroke:#000000;stroke-width:8.64"/>
	<line x1="2821.38" y1="2036.25" x2="2861.10" y2="2043.18" style="stroke:#000000;stroke-width:8.64"/>
	<line x1="2878.18" y1="2046.15" x2="2917.90" y2="2053.08" style="stroke:#000000;stroke-width:8.64"/>
	<line x1="2934.86" y1="2056.17" x2="2974.58" y2="2063.10" style="stroke:#000000;stroke-width:8.64"/>
	<line x1="2991.41" y1="2066.81" x2="3030.64" y2="2075.97" style="stroke:#000000;stroke-width:8.64"/>
	<line x1="3047.47" y1="2079.93" x2="3086.82" y2="2089.09" style="stroke:#000000;stroke-width:8.64"/>
	<line x1="3103.65" y1="2092.93" x2="3142.88" y2="2102.21" style="stroke:#000000;stroke-width:8.64"/>
	<line x1="3159.71" y1="2106.17" x2="3183.10" y2="2111.61" style="stroke:#000000;stroke-width:8.64"/>
	<line x1="3183.10" y1="2111.61" x2="3198.44" y2="2116.93" style="stroke:#000000;stroke-width:8.64"/>
	<line x1="3214.78" y1="2122.63" x2="3252.77" y2="2135.87" style="stroke:#000000;stroke-width:8.64"/>
	<line x1="3269.10" y1="2141.56" x2="3307.09" y2="2154.80" style="stroke:#000000;stroke-width:8.64"/>
	<line x1="3323.43" y1="2160.50" x2="3361.55" y2="2173.74" style="stroke:#000000;stroke-width:8.64"/>
	<line x1="3377.88" y1="2179.31" x2="3387.28" y2="2182.65" style="stroke:#000000;stroke-width:8.64"/>
	<line x1="3387.28" y1="2182.65" x2="3414.26" y2="2196.38" style="stroke:#000000;stroke-width:8.64"/>
	<line x1="3429.73" y1="2204.18" x2="3465.74" y2="2222.37" style="stroke:#000000;stroke-width:8.64"/>
	<line x1="3481.09" y1="2230.17" x2="3517.10" y2="2248.36" style="stroke:#000000;stroke-width:8.64"/>
	<line x1="3532.57" y1="2256.16" x2="3568.58" y2="2274.35" style="stroke:#000000;stroke-width:8.64"/>
	<line x1="3583.92" y1="2282.15" x2="3591.47" y2="2285.98" style="stroke:#000000;stroke-width:8.64"/>
	<line x1="3591.47" y1="2285.98" x2="3617.83" y2="2304.05" style="stroke:#000000;stroke-width:8.64"/>
	<line x1="3631.94" y1="2313.70" x2="3665.23" y2="2336.60" style="stroke:#000000;stroke-width:8.64"/>
	<line x1="3679.46" y1="2346.25" x2="3712.75" y2="2369.14" style="stroke:#000000;stroke-width:8.64"/>
	<line x1="3726.86" y1="2378.80" x2="3760.14" y2="2401.57" style="stroke:#000000;stroke-width:8.64"/>
	<line x1="3774.38" y1="2411.34" x2="3795.66" y2="2425.95" style="stroke:#000000;stroke-width:8.64"/>
	<path d="" stroke-linejoin="round" style="fill:none;stroke:#000000;stroke-width:8.64"/>
	<line x1="528.41" y1="553.92" x2="528.41" y2="553.92" style="stroke:#000000;stroke-width:8.64"/>
	<line x1="528.41" y1="553.92" x2="565.91" y2="539.20" style="stroke:#000000;stroke-width:8.64"/>
	<line x1="582.00" y1="532.88" x2="619.49" y2="518.16" style="stroke:#000000;stroke-width:8.64"/>
	<line x1="635.46" y1="511.85" x2="673.08" y2="497.12" style="stroke:#000000;stroke-width:8.64"/>
	<line x1="689.04" y1="490.81" x2="726.54" y2="476.08" style="stroke:#000000;stroke-width:8.64"/>
	<line x1="742.87" y1="470.51" x2="781.48" y2="458.76" style="stroke:#000000;stroke-width:8.64"/>
	<line x1="797.94" y1="453.81" x2="836.55" y2="442.05" style="stroke:#000000;stroke-width:8.64"/>
	<line x1="853.01" y1="436.97" x2="891.62" y2="425.22" style="stroke:#000000;stroke-width:8.64"/>
	<line x1="908.08" y1="420.27" x2="936.79" y2="411.48" style="stroke:#000000;stroke-width:8.64"/>
	<line x1="936.79" y1="411.48" x2="946.81" y2="409.25" style="stroke:#000000;stroke-width:8.64"/>
	<line x1="963.64" y1="405.67" x2="1003.12" y2="397.00" style="stroke:#000000;stroke-width:8.64"/>
	<line x1="1019.95" y1="393.41" x2="1059.42" y2="384.87" style="stroke:#000000;stroke-width:8.64"/>
	<line x1="1076.25" y1="381.16" x2="1115.73" y2="372.62" style="stroke:#000000;stroke-width:8.64"/>
	<line x1="1132.56" y1="368.91" x2="1140.97" y2="367.05" style="stroke:#000000;stroke-width:8.64"/>
	<line x1="1140.97" y1="367.05" x2="1172.28" y2="362.85" style="stroke:#000000;stroke-width:8.64"/>
	<line x1="1189.48" y1="360.62" x2="1229.46" y2="355.17" style="stroke:#000000;stroke-width:8.64"/>
	<line x1="1246.53" y1="352.95" x2="1286.51" y2="347.62" style="stroke:#000000;stroke-width:8.64"/>
	<line x1="1303.46" y1="345.27" x2="1343.43" y2="339.95" style="stroke:#000000;stroke-width:8.64"/>
	<line x1="1360.76" y1="338.84" x2="1400.97" y2="336.73" style="stroke:#000000;stroke-width:8.64"/>
	<line x1="1418.17" y1="335.74" x2="1458.52" y2="333.64" style="stroke:#000000;stroke-width:8.64"/>
	<line x1="1475.72" y1="332.65" x2="1516.06" y2="330.42" style="stroke:#000000;stroke-width:8.64"/>
	<line x1="1533.14" y1="329.56" x2="1549.35" y2="328.69" style="stroke:#000000;stroke-width:8.64"/>
	<line x1="1549.35" y1="328.69" x2="1573.48" y2="329.19" style="stroke:#000000;stroke-width:8.64"/>
	<line x1="1590.81" y1="329.56" x2="1631.15" y2="330.42" style="stroke:#000000;stroke-width:8.64"/>
	<line x1="1648.35" y1="330.79" x2="1688.69" y2="331.66" style="stroke:#000000;stroke-width:8.64"/>
	<line x1="1705.89" y1="332.03" x2="1746.24" y2="332.90" style="stroke:#000000;stroke-width:8.64"/>
	<line x1="1763.44" y1="333.89" x2="1803.66" y2="337.48" style="stroke:#000000;stroke-width:8.64"/>
	<line x1="1820.86" y1="338.96" x2="1860.95" y2="342.43" style="stroke:#000000;stroke-width:8.64"/>
	<line x1="1878.15" y1="344.04" x2="1918.25" y2="347.50" style="stroke:#000000;stroke-width:8.64"/>
	<line x1="1935.45" y1="349.11" x2="1957.85" y2="351.09" style="stroke:#000000;stroke-width:8.64"/>
	<line x1="1957.85" y1="351.09" x2="1975.55" y2="353.56" style="stroke:#000000;stroke-width:8.64"/>
	<line x1="1992.62" y1="356.16" x2="2032.47" y2="361.86" style="stroke:#000000;stroke-width:8.64"/>
	<line x1="2049.55" y1="364.46" x2="2089.52" y2="370.15" style="stroke:#000000;stroke-width:8.64"/>
	<line x1="2106.60" y1="372.75" x2="2146.44" y2="378.56" style="stroke:#000000;stroke-width:8.64"/>
	<line x1="2163.52" y1="381.04" x2="2203.12" y2="388.46" style="stroke:#000000;stroke-width:8.64"/>
	<line x1="2220.07" y1="391.68" x2="2259.80" y2="399.11" style="stroke:#000000;stroke-width:8.64"/>
	<line x1="2276.75" y1="402.32" x2="2316.35" y2="409.75" style="stroke:#000000;stroke-width:8.64"/>
	<line x1="2333.18" y1="412.97" x2="2366.22" y2="419.15" style="stroke:#000000;stroke-width:8.64"/>
	<line x1="2366.22" y1="419.15" x2="2372.78" y2="420.52" style="stroke:#000000;stroke-width:8.64"/>
	<line x1="2389.74" y1="423.98" x2="2429.21" y2="432.15" style="stroke:#000000;stroke-width:8.64"/>
	<line x1="2446.04" y1="435.74" x2="2485.52" y2="443.91" style="stroke:#000000;stroke-width:8.64"/>
	<line x1="2502.47" y1="447.37" x2="2541.95" y2="455.54" style="stroke:#000000;stroke-width:8.64"/>
	<line x1="2558.78" y1="459.00" x2="2570.41" y2="461.48" style="stroke:#000000;stroke-width:8.64"/>
	<line x1="2570.41" y1="461.48" x2="2598.26" y2="466.92" style="stroke:#000000;stroke-width:8.64"/>
	<line x1="2615.21" y1="470.14" x2="2654.81" y2="477.81" style="stroke:#000000;stroke-width:8.64"/>
	<line x1="2671.76" y1="481.16" x2="2711.36" y2="488.83" style="stroke:#000000;stroke-width:8.64"/>
	<line x1="2728.32" y1="492.17" x2="2767.92" y2="499.97" style="stroke:#000000;stroke-width:8.64"/>
	<line x1="2784.87" y1="502.56" x2="2824.84" y2="508.13" style="stroke:#000000;stroke-width:8.64"/>
	<line x1="2841.92" y1="510.48" x2="2881.89" y2="516.05" style="stroke:#000000;stroke-width:8.64"/>
	<line x1="2898.97" y1="518.40" x2="2938.94" y2="523.85" style="stroke:#000000;stroke-width:8.64"/>
	<line x1="2956.02" y1="526.33" x2="2978.79" y2="529.42" style="stroke:#000000;stroke-width:8.64"/>
	<line x1="2978.79" y1="529.42" x2="2996.11" y2="529.91" style="stroke:#000000;stroke-width:8.64"/>
	<line x1="3013.44" y1="530.41" x2="3053.66" y2="531.52" style="stroke:#000000;stroke-width:8.64"/>
	<line x1="3070.98" y1="531.89" x2="3111.32" y2="533.01" style="stroke:#000000;stroke-width:8.64"/>
	<line x1="3128.52" y1="533.50" x2="3168.87" y2="534.62" style="stroke:#000000;stroke-width:8.64"/>
	<line x1="3186.07" y1="534.62" x2="3226.04" y2="528.92" style="stroke:#000000;stroke-width:8.64"/>
	<line x1="3243.12" y1="526.57" x2="3283.09" y2="521.00" style="stroke:#000000;stroke-width:8.64"/>
	<line x1="3300.16" y1="518.65" x2="3340.14" y2="512.96" style="stroke:#000000;stroke-width:8.64"/>
	<line x1="3357.21" y1="510.61" x2="3387.28" y2="506.40" style="stroke:#000000;stroke-width:8.64"/>
	<line x1="3387.28" y1="506.40" x2="3396.69" y2="503.18" style="stroke:#000000;stroke-width:8.64"/>
	<line x1="3412.90" y1="497.37" x2="3451.02" y2="484.13" style="stroke:#000000;stroke-width:8.64"/>
	<line x1="3467.23" y1="478.31" x2="3505.34" y2="464.94" style="stroke:#000000;stroke-width:8.64"/>
	<line x1="3521.55" y1="459.25" x2="3559.67" y2="445.89" style="stroke:#000000;stroke-width:8.64"/>
	<line x1="3575.88" y1="440.19" x2="3591.47" y2="434.75" style="stroke:#000000;stroke-width:8.64"/>
	<line x1="3591.47" y1="434.75" x2="3612.01" y2="422.74" style="stroke:#000000;stroke-width:8.64"/>
	<line x1="3626.99" y1="413.96" x2="3661.76" y2="393.66" style="stroke:#000000;stroke-width:8.64"/>
	<line x1="3676.61" y1="385.00" x2="3711.51" y2="364.58" style="stroke:#000000;stroke-width:8.64"/>
	<line x1="3726.36" y1="355.92" x2="3761.26" y2="335.50" style="stroke:#000000;stroke-width:8.64"/>
	<line x1="3776.11" y1="326.83" x2="3795.66" y2="315.45" style="stroke:#000000;stroke-width:8.64"/>
	<path d="" stroke-linejoin="round" style="fill:none;stroke:#000000;stroke-width:8.64"/>
	<path d=" M528.41 553.92 L539.30 556.89 L550.19 559.99 L561.21 563.08 L572.10 566.05 L582.99 569.14 L594.00 572.24 L604.89 575.21 L615.78 578.30 L626.67 581.40 L637.68 584.37 L648.57 587.46 L659.46 590.55 L670.48 593.52 L681.37 596.62 L692.26 599.71 L703.27 602.68 L714.16 605.78 L725.05 608.87 L735.94 611.84 L746.96 614.93 L757.85 618.03 L768.74 621.00 L779.75 624.09 L790.64 627.18 L801.53 630.15 L812.54 633.25 L823.43 636.34 L834.32 639.31 L845.21 642.41 L856.23 645.50 L867.12 648.47 L878.01 651.56 L889.02 654.66 L899.91 657.63 L910.80 660.72 L921.81 663.82 L932.70 666.79 L943.59 669.88 L954.48 672.97 L965.50 675.94 L976.39 679.04 L987.28 682.01 L998.29 685.10 L1009.18 688.20 L1020.07 691.17 L1031.09 694.26 L1041.97 697.35 L1052.87 700.32 L1063.76 703.42 L1074.77 706.51 L1085.66 709.48 L1096.55 712.57 L1107.56 715.67 L1118.45 718.64 L1129.34 721.73 L1140.36 724.83 L1151.25 727.80 L1162.14 730.89 L1173.15 733.98 L1184.04 736.95 L1194.93 740.05 L1205.82 743.14 L1216.83 746.11 L1227.72 749.21 L1238.61 752.30 L1249.63 755.27 L1260.52 758.36 L1271.41 761.46 L1282.42 764.43 L1293.31 767.52 L1304.20 770.62 L1315.09 773.59 L1326.11 776.68 L1336.99 779.77 L1347.88 782.74 L1358.90 785.84 L1369.79 788.93 L1380.68 791.90 L1391.69 794.99 L1402.58 798.09 L1413.47 801.06 L1424.36 804.15 L1435.38 807.25 L1446.27 810.22 L1457.16 813.31 L1468.17 816.40 L1479.06 819.37 L1489.95 822.47 L1500.96 825.56 L1511.85 828.53 L1522.74 831.63 L1533.63 834.72 L1544.65 837.69 L1555.54 840.78 L1566.43 843.88 L1577.44 846.85 L1588.33 849.94 L1599.22 853.04 L1610.23 856.01 L1621.12 859.10 L1632.02 862.19 L1643.03 865.16 L1653.92 868.26 L1664.81 871.23 L1675.70 874.32 L1686.71 877.41 L1697.60 880.39 L1708.49 883.48 L1719.51 886.57 L1730.40 889.54 L1741.29 892.64 L1752.30 895.73 L1763.19 898.70 L1774.08 901.79 L1784.97 904.89 L1795.98 907.86 L1806.87 910.95 L1817.76 914.05 L1828.78 917.02 L1839.67 920.11 L1850.56 923.20 L1861.57 926.17 L1872.46 929.27 L1883.35 932.36 L1894.24 935.33 L1905.26 938.43 L1916.14 941.52 L1927.04 944.49 L1938.05 947.58 L1948.94 950.68 L1959.83 953.65 L1970.84 956.74 L1981.73 959.83 L1992.62 962.81 L2003.51 965.90 L2014.53 968.99 L2025.42 971.96 L2036.31 975.06 L2047.32 978.15 L2058.21 981.12 L2069.10 984.21 L2080.11 987.31 L2091.00 990.28 L2101.89 993.37 L2112.78 996.47 L2123.80 999.44 L2134.69 1002.53 L2145.58 1005.62 L2156.59 1008.59 L2167.48 1011.69 L2178.37 1014.78 L2189.39 1017.75 L2200.28 1020.85 L2211.16 1023.94 L2222.18 1026.91 L2233.07 1030.00 L2243.96 1033.10 L2254.85 1036.07 L2265.86 1039.16 L2276.75 1042.26 L2287.64 1045.23 L2298.66 1048.32 L2309.55 1051.41 L2320.44 1054.38 L2331.45 1057.48 L2342.34 1060.45 L2353.23 1063.54 L2364.12 1066.63 L2375.13 1069.60 L2386.02 1072.70 L2396.91 1075.79 L2407.93 1078.76 L2418.82 1081.86 L2429.71 1084.95 L2440.72 1087.92 L2451.61 1091.01 L2462.50 1094.11 L2473.39 1097.08 L2484.41 1100.17 L2495.30 1103.27 L2506.18 1106.24 L2517.20 1109.33 L2528.09 1112.42 L2538.98 1115.39 L2549.99 1118.49 L2560.88 1121.58 L2571.77 1124.55 L2582.66 1127.65 L2593.68 1130.74 L2604.57 1133.71 L2615.46 1136.80 L2626.47 1139.90 L2637.36 1142.87 L2648.25 1145.96 L2659.26 1149.05 L2670.15 1152.02 L2681.04 1155.12 L2691.93 1158.21 L2702.95 1161.18 L2713.84 1164.28 L2724.73 1167.37 L2735.74 1170.34 L2746.63 1173.43 L2757.52 1176.53 L2768.53 1179.50 L2779.43 1182.59 L2790.32 1185.69 L2801.33 1188.66 L2812.22 1191.75 L2823.11 1194.84 L2834.00 1197.81 L2845.01 1200.91 L2855.90 1204.00 L2866.79 1206.97 L2877.81 1210.07 L2888.70 1213.16 L2899.59 1216.13 L2910.60 1219.22 L2921.49 1222.32 L2932.38 1225.29 L2943.27 1228.38 L2954.28 1231.47 L2965.17 1234.44 L2976.06 1237.54 L2987.08 1240.63 L2997.97 1243.60 L3008.86 1246.70 L3019.87 1249.67 L3030.76 1252.76 L3041.65 1255.85 L3052.54 1258.82 L3063.55 1261.92 L3074.45 1265.01 L3085.34 1267.98 L3096.35 1271.08 L3107.24 1274.17 L3118.13 1277.14 L3129.14 1280.23 L3140.03 1283.33 L3150.92 1286.30 L3161.81 1289.39 L3172.83 1292.49 L3183.72 1295.46 L3194.61 1298.55 L3205.62 1301.64 L3216.51 1304.61 L3227.40 1307.71 L3238.41 1310.80 L3249.30 1313.77 L3260.19 1316.86 L3271.21 1319.96 L3282.10 1322.93 L3292.99 1326.02 L3303.88 1329.12 L3314.89 1332.09 L3325.78 1335.18 L3336.67 1338.27 L3347.68 1341.24 L3358.57 1344.34 L3369.47 1347.43 L3380.48 1350.40 L3391.37 1353.50 L3402.26 1356.59 L3413.15 1359.56 L3424.16 1362.65 L3435.05 1365.75 L3445.94 1368.72 L3456.96 1371.81 L3467.85 1374.91 L3478.74 1377.88 L3489.75 1380.97 L3500.64 1384.06 L3511.53 1387.03 L3522.42 1390.13 L3533.43 1393.22 L3544.32 1396.19 L3555.21 1399.28 L3566.23 1402.38 L3577.12 1405.35 L3588.01 1408.44 L3599.02 1411.54 L3609.91 1414.51 L3620.80 1417.60 L3631.69 1420.69 L3642.70 1423.66 L3653.59 1426.76 L3664.49 1429.85 L3675.50 1432.82 L3686.39 1435.92 L3697.28 1438.89 L3708.29 1441.98 L3719.18 1445.07 L3730.07 1448.04 L3740.96 1451.14 L3751.98 1454.23 L3762.87 1457.20 L3773.76 1460.30 L3784.77 1463.39 L3795.66 1466.36" stroke-linejoin="round" style="fill:none;stroke:#404040;stroke-width:8.64"/>
	<line x1="465.05" y1="2489.19" x2="465.05" y2="100.86" style="stroke:#000000;stroke-width:5.76"/>
	<line x1="465.05" y1="2335.98" x2="425.08" y2="2335.98" style="stroke:#000000;stroke-width:5.76"/>
	<text x="405.03" y="2371.01" style="font-family:'Helvetica';font-size:99.99px;fill:#000000" text-anchor="end">0.8</text>
	<line x1="465.05" y1="1851.85" x2="425.08" y2="1851.85" style="stroke:#000000;stroke-width:5.76"/>
	<text x="405.03" y="1886.88" style="font-family:'Helvetica';font-size:99.99px;fill:#000000" text-anchor="end">0.9</text>
	<line x1="465.05" y1="1395.32" x2="425.08" y2="1395.32" style="stroke:#000000;stroke-width:5.76"/>
	<text x="405.03" y="1430.35" style="font-family:'Helvetica';font-size:99.99px;fill:#000000" text-anchor="end">0.9</text>
	<line x1="465.05" y1="963.42" x2="425.08" y2="963.42" style="stroke:#000000;stroke-width:5.76"/>
	<text x="405.03" y="998.45" style="font-family:'Helvetica';font-size:99.99px;fill:#000000" text-anchor="end">1.0</text>
	<line x1="465.05" y1="553.80" x2="425.08" y2="553.80" style="stroke:#000000;stroke-width:5.76"/>
	<text x="405.03" y="588.83" style="font-family:'Helvetica';font-size:99.99px;fill:#000000" text-anchor="end">1.0</text>
	<line x1="465.05" y1="164.22" x2="425.08" y2="164.22" style="stroke:#000000;stroke-width:5.76"/>
	<text x="405.03" y="199.25" style="font-family:'Helvetica';font-size:99.99px;fill:#000000" text-anchor="end">1.1</text>
	<text x="190.71" y="1294.96" style="font-family:'Helvetica';font-size:99.99px;fill:#000000" transform="rotate(-90 190.71,1294.96)" text-anchor="middle">Relative Risk</text>
	<line x1="465.05" y1="2489.19" x2="3859.02" y2="2489.19" style="stroke:#000000;stroke-width:5.76"/>
	<line x1="528.41" y1="2489.19" x2="528.41" y2="2529.16" style="stroke:#000000;stroke-width:5.76"/>
	<text x="528.41" y="2619.14" style="font-family:'Helvetica';font-size:99.99px;fill:#000000" text-anchor="middle">0</text>
	<line x1="1345.29" y1="2489.19" x2="1345.29" y2="2529.16" style="stroke:#000000;stroke-width:5.76"/>
	<text x="1345.29" y="2619.14" style="font-family:'Helvetica';font-size:99.99px;fill:#000000" text-anchor="middle">2</text>
	<line x1="2162.04" y1="2489.19" x2="2162.04" y2="2529.16" style="stroke:#000000;stroke-width:5.76"/>
	<text x="2162.04" y="2619.14" style="font-family:'Helvetica';font-size:99.99px;fill:#000000" text-anchor="middle">4</text>
	<line x1="2978.91" y1="2489.19" x2="2978.91" y2="2529.16" style="stroke:#000000;stroke-width:5.76"/>
	<text x="2978.91" y="2619.14" style="font-family:'Helvetica';font-size:99.99px;fill:#000000" text-anchor="middle">6</text>
	<line x1="3795.78" y1="2489.19" x2="3795.78" y2="2529.16" style="stroke:#000000;stroke-width:5.76"/>
	<text x="3795.78" y="2619.14" style="font-family:'Helvetica';font-size:99.99px;fill:#000000" text-anchor="middle">8</text>
	<text x="2162.04" y="2729.16" style="font-family:'Helvetica';font-size:99.99px;fill:#000000" text-anchor="middle">Coffee consumption, cups/day</text>
</svg>
